G04 #@! TF.FileFunction,Paste,Top*
%FSLAX46Y46*%
G04 Gerber Fmt 4.6, Leading zero omitted, Abs format (unit mm)*
G04 Created by KiCad (PCBNEW 4.0.1-stable) date 26/04/2018 08:46:55*
%MOMM*%
G01*
G04 APERTURE LIST*
%ADD10C,0.100000*%
%ADD11R,2.100000X5.600000*%
%ADD12R,0.640000X2.730000*%
%ADD13R,1.500000X1.800000*%
%ADD14R,1.250000X1.500000*%
%ADD15R,1.120000X0.300000*%
%ADD16R,0.300000X1.120000*%
%ADD17R,1.100000X1.250000*%
%ADD18R,3.800000X2.000000*%
%ADD19R,1.500000X2.000000*%
%ADD20R,0.700000X1.300000*%
%ADD21R,1.250000X1.000000*%
%ADD22R,3.000000X1.600000*%
%ADD23R,1.000000X1.250000*%
%ADD24R,1.300000X0.700000*%
%ADD25R,0.800000X0.750000*%
%ADD26R,0.750000X0.800000*%
%ADD27R,2.100000X1.400000*%
%ADD28R,1.000000X0.550000*%
%ADD29R,1.550000X0.600000*%
%ADD30R,1.350000X0.400000*%
%ADD31R,0.600000X0.600000*%
%ADD32R,0.400000X0.600000*%
%ADD33R,1.520000X1.780000*%
%ADD34R,0.600000X0.950000*%
%ADD35R,0.450000X0.600000*%
%ADD36R,1.800000X1.500000*%
%ADD37R,1.620000X2.180000*%
%ADD38R,0.500000X0.500000*%
%ADD39R,1.000000X2.000000*%
%ADD40R,0.600000X1.300000*%
%ADD41R,1.400000X1.000000*%
%ADD42R,1.300000X0.600000*%
%ADD43R,2.200000X0.600000*%
%ADD44R,1.750000X0.700000*%
%ADD45R,1.600000X0.410000*%
%ADD46R,1.500000X0.600000*%
%ADD47R,1.475000X2.100000*%
%ADD48R,2.375000X1.900000*%
%ADD49R,1.175000X1.900000*%
%ADD50R,0.500000X1.380000*%
%ADD51R,2.150000X0.950000*%
%ADD52R,2.150000X3.250000*%
%ADD53R,1.500000X1.250000*%
%ADD54R,0.560000X2.755000*%
G04 APERTURE END LIST*
D10*
D11*
X86400000Y-82550000D03*
X86360000Y-73050000D03*
D12*
X107910000Y-56315000D03*
X107910000Y-51685000D03*
X110450000Y-51685000D03*
X110450000Y-56315000D03*
X112990000Y-56315000D03*
X112990000Y-51685000D03*
X115530000Y-51685000D03*
X115530000Y-56315000D03*
X95210000Y-56315000D03*
X95210000Y-51685000D03*
X92670000Y-51685000D03*
X92670000Y-56315000D03*
X105370000Y-56315000D03*
X105370000Y-51685000D03*
X102830000Y-51685000D03*
X102830000Y-56315000D03*
X100290000Y-56315000D03*
X100290000Y-51685000D03*
X97750000Y-51685000D03*
X97750000Y-56315000D03*
D13*
X132700000Y-55300000D03*
X132700000Y-52500000D03*
D14*
X82800000Y-82550000D03*
X82800000Y-80050000D03*
D15*
X91180000Y-64250000D03*
X91180000Y-64750000D03*
X91180000Y-65250000D03*
X91180000Y-65750000D03*
X91180000Y-66250000D03*
X91180000Y-66750000D03*
X91180000Y-67250000D03*
X91180000Y-67750000D03*
X91180000Y-68250000D03*
X91180000Y-68750000D03*
X91180000Y-69250000D03*
X91180000Y-69750000D03*
X91180000Y-70250000D03*
X91180000Y-70750000D03*
X91180000Y-71250000D03*
X91180000Y-71750000D03*
X91180000Y-72250000D03*
X91180000Y-72750000D03*
X91180000Y-73250000D03*
X91180000Y-73750000D03*
X91180000Y-74250000D03*
X91180000Y-74750000D03*
X91180000Y-75250000D03*
X91180000Y-75750000D03*
X91180000Y-76250000D03*
X91180000Y-76750000D03*
X91180000Y-77250000D03*
X91180000Y-77750000D03*
X91180000Y-78250000D03*
X91180000Y-78750000D03*
X91180000Y-79250000D03*
X91180000Y-79750000D03*
X91180000Y-80250000D03*
X91180000Y-80750000D03*
X91180000Y-81250000D03*
X91180000Y-81750000D03*
X91180000Y-82250000D03*
X91180000Y-82750000D03*
X91180000Y-83250000D03*
X91180000Y-83750000D03*
X91180000Y-84250000D03*
X91180000Y-84750000D03*
X91180000Y-85250000D03*
X91180000Y-85750000D03*
D16*
X93050000Y-87620000D03*
X93550000Y-87620000D03*
X94050000Y-87620000D03*
X94550000Y-87620000D03*
X95050000Y-87620000D03*
X95550000Y-87620000D03*
X96050000Y-87620000D03*
X96550000Y-87620000D03*
X97050000Y-87620000D03*
X97550000Y-87620000D03*
X98050000Y-87620000D03*
X98550000Y-87620000D03*
X99050000Y-87620000D03*
X99550000Y-87620000D03*
X100050000Y-87620000D03*
X100550000Y-87620000D03*
X101050000Y-87620000D03*
X101550000Y-87620000D03*
X102050000Y-87620000D03*
X102550000Y-87620000D03*
X103050000Y-87620000D03*
X103550000Y-87620000D03*
X104050000Y-87620000D03*
X104550000Y-87620000D03*
X105050000Y-87620000D03*
X105550000Y-87620000D03*
X106050000Y-87620000D03*
X106550000Y-87620000D03*
X107050000Y-87620000D03*
X107550000Y-87620000D03*
X108050000Y-87620000D03*
X108550000Y-87620000D03*
X109050000Y-87620000D03*
X109550000Y-87620000D03*
X110050000Y-87620000D03*
X110550000Y-87620000D03*
X111050000Y-87620000D03*
X111550000Y-87620000D03*
X112050000Y-87620000D03*
X112550000Y-87620000D03*
X113050000Y-87620000D03*
X113550000Y-87620000D03*
X114050000Y-87620000D03*
X114550000Y-87620000D03*
D15*
X116420000Y-85750000D03*
X116420000Y-85250000D03*
X116420000Y-84750000D03*
X116420000Y-84250000D03*
X116420000Y-83750000D03*
X116420000Y-83250000D03*
X116420000Y-82750000D03*
X116420000Y-82250000D03*
X116420000Y-81750000D03*
X116420000Y-81250000D03*
X116420000Y-80750000D03*
X116420000Y-80250000D03*
X116420000Y-79750000D03*
X116420000Y-79250000D03*
X116420000Y-78750000D03*
X116420000Y-78250000D03*
X116420000Y-77750000D03*
X116420000Y-77250000D03*
X116420000Y-76750000D03*
X116420000Y-76250000D03*
X116420000Y-75750000D03*
X116420000Y-75250000D03*
X116420000Y-74750000D03*
X116420000Y-74250000D03*
X116420000Y-73750000D03*
X116420000Y-73250000D03*
X116420000Y-72750000D03*
X116420000Y-72250000D03*
X116420000Y-71750000D03*
X116420000Y-71250000D03*
X116420000Y-70750000D03*
X116420000Y-70250000D03*
X116420000Y-69750000D03*
X116420000Y-69250000D03*
X116420000Y-68750000D03*
X116420000Y-68250000D03*
X116420000Y-67750000D03*
X116420000Y-67250000D03*
X116420000Y-66750000D03*
X116420000Y-66250000D03*
X116420000Y-65750000D03*
X116420000Y-65250000D03*
X116420000Y-64750000D03*
X116420000Y-64250000D03*
D16*
X114550000Y-62380000D03*
X114050000Y-62380000D03*
X113550000Y-62380000D03*
X113050000Y-62380000D03*
X112550000Y-62380000D03*
X112050000Y-62380000D03*
X111550000Y-62380000D03*
X111050000Y-62380000D03*
X110550000Y-62380000D03*
X110050000Y-62380000D03*
X109550000Y-62380000D03*
X109050000Y-62380000D03*
X108550000Y-62380000D03*
X108050000Y-62380000D03*
X107550000Y-62380000D03*
X107050000Y-62380000D03*
X106550000Y-62380000D03*
X106050000Y-62380000D03*
X105550000Y-62380000D03*
X105050000Y-62380000D03*
X104550000Y-62380000D03*
X104050000Y-62380000D03*
X103550000Y-62380000D03*
X103050000Y-62380000D03*
X102550000Y-62380000D03*
X102050000Y-62380000D03*
X101550000Y-62380000D03*
X101050000Y-62380000D03*
X100550000Y-62380000D03*
X100050000Y-62380000D03*
X99550000Y-62380000D03*
X99050000Y-62380000D03*
X98550000Y-62380000D03*
X98050000Y-62380000D03*
X97550000Y-62380000D03*
X97050000Y-62380000D03*
X96550000Y-62380000D03*
X96050000Y-62380000D03*
X95550000Y-62380000D03*
X95050000Y-62380000D03*
X94550000Y-62380000D03*
X94050000Y-62380000D03*
X93550000Y-62380000D03*
X93050000Y-62380000D03*
D17*
X76700000Y-105625000D03*
X76700000Y-107975000D03*
X66000000Y-67525000D03*
X66000000Y-69875000D03*
X74500000Y-105625000D03*
X74500000Y-107975000D03*
D18*
X62700000Y-52950000D03*
D19*
X62700000Y-59250000D03*
X65000000Y-59250000D03*
X60400000Y-59250000D03*
D20*
X123050000Y-51800000D03*
X124950000Y-51800000D03*
D21*
X75800000Y-90000000D03*
X75800000Y-88000000D03*
D22*
X57100000Y-54400000D03*
X52700000Y-54400000D03*
D21*
X120200000Y-89900000D03*
X120200000Y-87900000D03*
X67400000Y-59800000D03*
X67400000Y-57800000D03*
D23*
X62400000Y-61600000D03*
X60400000Y-61600000D03*
X81700000Y-95500000D03*
X83700000Y-95500000D03*
X91500000Y-108500000D03*
X93500000Y-108500000D03*
X95000000Y-100800000D03*
X93000000Y-100800000D03*
X130500000Y-81500000D03*
X132500000Y-81500000D03*
X130500000Y-70400000D03*
X132500000Y-70400000D03*
X134000000Y-57600000D03*
X136000000Y-57600000D03*
X141100000Y-66500000D03*
X139100000Y-66500000D03*
X138400000Y-50600000D03*
X140400000Y-50600000D03*
X144100000Y-55600000D03*
X142100000Y-55600000D03*
X140400000Y-52500000D03*
X138400000Y-52500000D03*
D21*
X146000000Y-53700000D03*
X146000000Y-55700000D03*
D23*
X135800000Y-41900000D03*
X137800000Y-41900000D03*
X142500000Y-51700000D03*
X144500000Y-51700000D03*
X149100000Y-94200000D03*
X151100000Y-94200000D03*
D21*
X154600000Y-98500000D03*
X154600000Y-96500000D03*
X122900000Y-68700000D03*
X122900000Y-66700000D03*
D23*
X148100000Y-46400000D03*
X150100000Y-46400000D03*
D24*
X62800000Y-71050000D03*
X62800000Y-69150000D03*
X89900000Y-91550000D03*
X89900000Y-89650000D03*
X97600000Y-58850000D03*
X97600000Y-60750000D03*
X76700000Y-101950000D03*
X76700000Y-103850000D03*
X71700000Y-82150000D03*
X71700000Y-80250000D03*
X80500000Y-73950000D03*
X80500000Y-75850000D03*
X66000000Y-65950000D03*
X66000000Y-64050000D03*
X94100000Y-89150000D03*
X94100000Y-91050000D03*
D20*
X92450000Y-59000000D03*
X94350000Y-59000000D03*
X113950000Y-59000000D03*
X115850000Y-59000000D03*
D24*
X118800000Y-55350000D03*
X118800000Y-53450000D03*
X74600000Y-101950000D03*
X74600000Y-103850000D03*
D20*
X83850000Y-97400000D03*
X81950000Y-97400000D03*
X81450000Y-68900000D03*
X83350000Y-68900000D03*
X81950000Y-99300000D03*
X83850000Y-99300000D03*
X81550000Y-93600000D03*
X83450000Y-93600000D03*
X80950000Y-61600000D03*
X82850000Y-61600000D03*
X92850000Y-98900000D03*
X94750000Y-98900000D03*
X77450000Y-58800000D03*
X79350000Y-58800000D03*
X76250000Y-62100000D03*
X78150000Y-62100000D03*
D25*
X103950000Y-60700000D03*
X102450000Y-60700000D03*
X108850000Y-60700000D03*
X107350000Y-60700000D03*
X99150000Y-89200000D03*
X100650000Y-89200000D03*
X114250000Y-89200000D03*
X112750000Y-89200000D03*
D26*
X118100000Y-81150000D03*
X118100000Y-79650000D03*
X118100000Y-75750000D03*
X118100000Y-74250000D03*
D25*
X92550000Y-60700000D03*
X94050000Y-60700000D03*
X115550000Y-60700000D03*
X114050000Y-60700000D03*
D26*
X118100000Y-64250000D03*
X118100000Y-65750000D03*
X118100000Y-87150000D03*
X118100000Y-85650000D03*
X89400000Y-69150000D03*
X89400000Y-67650000D03*
X89500000Y-85450000D03*
X89500000Y-83950000D03*
X89500000Y-79750000D03*
X89500000Y-81250000D03*
D25*
X104150000Y-89200000D03*
X105650000Y-89200000D03*
X97650000Y-89200000D03*
X96150000Y-89200000D03*
D26*
X89500000Y-72850000D03*
X89500000Y-74350000D03*
D27*
X78350000Y-91250000D03*
X78350000Y-86750000D03*
X87450000Y-91250000D03*
X87450000Y-86750000D03*
D28*
X80850000Y-65250000D03*
X80850000Y-66200000D03*
X80850000Y-67150000D03*
X83550000Y-67150000D03*
X83550000Y-65250000D03*
X80850000Y-57950000D03*
X80850000Y-58900000D03*
X80850000Y-59850000D03*
X83550000Y-59850000D03*
X83550000Y-57950000D03*
D29*
X130800000Y-72995000D03*
X130800000Y-74265000D03*
X130800000Y-75535000D03*
X130800000Y-76805000D03*
X136200000Y-76805000D03*
X136200000Y-75535000D03*
X136200000Y-74265000D03*
X136200000Y-72995000D03*
X133000000Y-60195000D03*
X133000000Y-61465000D03*
X133000000Y-62735000D03*
X133000000Y-64005000D03*
X138400000Y-64005000D03*
X138400000Y-62735000D03*
X138400000Y-61465000D03*
X138400000Y-60195000D03*
X135100000Y-44295000D03*
X135100000Y-45565000D03*
X135100000Y-46835000D03*
X135100000Y-48105000D03*
X140500000Y-48105000D03*
X140500000Y-46835000D03*
X140500000Y-45565000D03*
X140500000Y-44295000D03*
X146500000Y-98895000D03*
X146500000Y-100165000D03*
X146500000Y-101435000D03*
X146500000Y-102705000D03*
X151900000Y-102705000D03*
X151900000Y-101435000D03*
X151900000Y-100165000D03*
X151900000Y-98895000D03*
X134800000Y-103095000D03*
X134800000Y-104365000D03*
X134800000Y-105635000D03*
X134800000Y-106905000D03*
X140200000Y-106905000D03*
X140200000Y-105635000D03*
X140200000Y-104365000D03*
X140200000Y-103095000D03*
X122500000Y-103095000D03*
X122500000Y-104365000D03*
X122500000Y-105635000D03*
X122500000Y-106905000D03*
X127900000Y-106905000D03*
X127900000Y-105635000D03*
X127900000Y-104365000D03*
X127900000Y-103095000D03*
X90300000Y-44195000D03*
X90300000Y-45465000D03*
X90300000Y-46735000D03*
X90300000Y-48005000D03*
X95700000Y-48005000D03*
X95700000Y-46735000D03*
X95700000Y-45465000D03*
X95700000Y-44195000D03*
X130800000Y-83995000D03*
X130800000Y-85265000D03*
X130800000Y-86535000D03*
X130800000Y-87805000D03*
X136200000Y-87805000D03*
X136200000Y-86535000D03*
X136200000Y-85265000D03*
X136200000Y-83995000D03*
X85600000Y-96095000D03*
X85600000Y-97365000D03*
X85600000Y-98635000D03*
X85600000Y-99905000D03*
X91000000Y-99905000D03*
X91000000Y-98635000D03*
X91000000Y-97365000D03*
X91000000Y-96095000D03*
D30*
X121350000Y-72225000D03*
X121350000Y-72875000D03*
X121350000Y-73525000D03*
X121350000Y-74175000D03*
X125650000Y-74175000D03*
X125650000Y-73525000D03*
X125650000Y-72875000D03*
X125650000Y-72225000D03*
X123750000Y-63125000D03*
X123750000Y-63775000D03*
X123750000Y-64425000D03*
X123750000Y-65075000D03*
X128050000Y-65075000D03*
X128050000Y-64425000D03*
X128050000Y-63775000D03*
X128050000Y-63125000D03*
X123750000Y-57625000D03*
X123750000Y-58275000D03*
X123750000Y-58925000D03*
X123750000Y-59575000D03*
X128050000Y-59575000D03*
X128050000Y-58925000D03*
X128050000Y-58275000D03*
X128050000Y-57625000D03*
X121350000Y-80925000D03*
X121350000Y-81575000D03*
X121350000Y-82225000D03*
X121350000Y-82875000D03*
X125650000Y-82875000D03*
X125650000Y-82225000D03*
X125650000Y-81575000D03*
X125650000Y-80925000D03*
D20*
X94750000Y-102700000D03*
X92850000Y-102700000D03*
X94750000Y-97000000D03*
X92850000Y-97000000D03*
X92850000Y-104600000D03*
X94750000Y-104600000D03*
X78250000Y-93600000D03*
X80150000Y-93600000D03*
D24*
X128700000Y-72050000D03*
X128700000Y-73950000D03*
X128700000Y-75350000D03*
X128700000Y-77250000D03*
X128700000Y-68750000D03*
X128700000Y-70650000D03*
X142600000Y-77050000D03*
X142600000Y-75150000D03*
D20*
X153950000Y-85600000D03*
X152050000Y-85600000D03*
X145650000Y-94200000D03*
X147550000Y-94200000D03*
X147450000Y-96200000D03*
X145550000Y-96200000D03*
X135950000Y-68500000D03*
X134050000Y-68500000D03*
X144550000Y-98200000D03*
X142650000Y-98200000D03*
D24*
X142200000Y-91350000D03*
X142200000Y-93250000D03*
X130900000Y-62750000D03*
X130900000Y-64650000D03*
X130900000Y-59450000D03*
X130900000Y-61350000D03*
D20*
X132450000Y-57600000D03*
X130550000Y-57600000D03*
X134250000Y-66500000D03*
X132350000Y-66500000D03*
X135650000Y-66500000D03*
X137550000Y-66500000D03*
D24*
X140600000Y-62450000D03*
X140600000Y-64350000D03*
D20*
X133150000Y-45300000D03*
X131250000Y-45300000D03*
X129450000Y-45300000D03*
X127550000Y-45300000D03*
X129450000Y-43400000D03*
X127550000Y-43400000D03*
X131250000Y-43300000D03*
X133150000Y-43300000D03*
X133150000Y-41300000D03*
X131250000Y-41300000D03*
X142350000Y-45700000D03*
X144250000Y-45700000D03*
X129450000Y-47300000D03*
X127550000Y-47300000D03*
X129450000Y-49200000D03*
X127550000Y-49200000D03*
X144250000Y-47700000D03*
X142350000Y-47700000D03*
X142350000Y-49700000D03*
X144250000Y-49700000D03*
X136850000Y-50600000D03*
X134950000Y-50600000D03*
X144250000Y-53600000D03*
X142350000Y-53600000D03*
X127250000Y-91800000D03*
X125350000Y-91800000D03*
X121050000Y-51800000D03*
X119150000Y-51800000D03*
D24*
X119000000Y-43250000D03*
X119000000Y-41350000D03*
X120900000Y-43250000D03*
X120900000Y-41350000D03*
D20*
X146150000Y-57600000D03*
X144250000Y-57600000D03*
X137150000Y-79300000D03*
X135250000Y-79300000D03*
D24*
X138600000Y-75150000D03*
X138600000Y-77050000D03*
D20*
X133850000Y-79300000D03*
X131950000Y-79300000D03*
X142650000Y-100200000D03*
X144550000Y-100200000D03*
X155650000Y-102700000D03*
X153750000Y-102700000D03*
X153750000Y-100700000D03*
X155650000Y-100700000D03*
X149750000Y-105200000D03*
X147850000Y-105200000D03*
X147850000Y-107100000D03*
X149750000Y-107100000D03*
X137950000Y-100600000D03*
X139850000Y-100600000D03*
X136550000Y-100600000D03*
X134650000Y-100600000D03*
D24*
X132400000Y-102650000D03*
X132400000Y-104550000D03*
X130400000Y-104550000D03*
X130400000Y-102650000D03*
X120200000Y-103050000D03*
X120200000Y-104950000D03*
D20*
X142250000Y-106200000D03*
X144150000Y-106200000D03*
X142250000Y-108200000D03*
X144150000Y-108200000D03*
D24*
X142900000Y-102550000D03*
X142900000Y-104450000D03*
D20*
X130150000Y-106300000D03*
X132050000Y-106300000D03*
X132050000Y-108300000D03*
X130150000Y-108300000D03*
D24*
X108700000Y-106950000D03*
X108700000Y-108850000D03*
D20*
X94650000Y-95000000D03*
X96550000Y-95000000D03*
D24*
X85800000Y-102050000D03*
X85800000Y-103950000D03*
X78800000Y-101950000D03*
X78800000Y-103850000D03*
X88200000Y-49850000D03*
X88200000Y-47950000D03*
X88200000Y-46550000D03*
X88200000Y-44650000D03*
D20*
X123450000Y-84600000D03*
X125350000Y-84600000D03*
D24*
X121700000Y-86150000D03*
X121700000Y-84250000D03*
X121700000Y-77450000D03*
X121700000Y-75550000D03*
D20*
X123450000Y-75900000D03*
X125350000Y-75900000D03*
X133850000Y-90300000D03*
X131950000Y-90300000D03*
D24*
X128600000Y-86550000D03*
X128600000Y-88450000D03*
D20*
X137150000Y-90300000D03*
X135250000Y-90300000D03*
D24*
X128600000Y-83150000D03*
X128600000Y-85050000D03*
X138600000Y-86350000D03*
X138600000Y-88250000D03*
X128600000Y-79850000D03*
X128600000Y-81750000D03*
X114200000Y-95950000D03*
X114200000Y-94050000D03*
D20*
X153950000Y-83600000D03*
X152050000Y-83600000D03*
D24*
X112200000Y-95950000D03*
X112200000Y-94050000D03*
X110200000Y-95950000D03*
X110200000Y-94050000D03*
X150400000Y-42850000D03*
X150400000Y-44750000D03*
X144600000Y-43550000D03*
X144600000Y-41650000D03*
X146300000Y-45450000D03*
X146300000Y-47350000D03*
D20*
X120550000Y-61500000D03*
X122450000Y-61500000D03*
D24*
X123200000Y-54450000D03*
X123200000Y-56350000D03*
X82100000Y-51950000D03*
X82100000Y-50050000D03*
X80100000Y-51950000D03*
X80100000Y-50050000D03*
X66700000Y-45450000D03*
X66700000Y-43550000D03*
D20*
X64650000Y-50600000D03*
X62750000Y-50600000D03*
X61350000Y-50600000D03*
X59450000Y-50600000D03*
D31*
X89350000Y-103900000D03*
X90850000Y-103900000D03*
D32*
X90100000Y-102100000D03*
X90100000Y-103900000D03*
D31*
X90850000Y-102100000D03*
X89350000Y-102100000D03*
X82450000Y-103900000D03*
X83950000Y-103900000D03*
D32*
X83200000Y-102100000D03*
X83200000Y-103900000D03*
D31*
X83950000Y-102100000D03*
X82450000Y-102100000D03*
X128850000Y-92500000D03*
X130350000Y-92500000D03*
D32*
X129600000Y-90700000D03*
X129600000Y-92500000D03*
D31*
X130350000Y-90700000D03*
X128850000Y-90700000D03*
X128850000Y-96000000D03*
X130350000Y-96000000D03*
D32*
X129600000Y-94200000D03*
X129600000Y-96000000D03*
D31*
X130350000Y-94200000D03*
X128850000Y-94200000D03*
D33*
X62690000Y-73060000D03*
X62690000Y-75600000D03*
X62690000Y-78140000D03*
X71710000Y-78140000D03*
X71710000Y-75600000D03*
X71710000Y-73060000D03*
D34*
X82250000Y-46175000D03*
X81300000Y-46175000D03*
X80350000Y-46175000D03*
X80350000Y-48425000D03*
X81300000Y-48425000D03*
X82250000Y-48425000D03*
D35*
X60600000Y-73250000D03*
X60600000Y-75350000D03*
D13*
X52700000Y-89300000D03*
X52700000Y-86500000D03*
D36*
X60600000Y-105400000D03*
X57800000Y-105400000D03*
D13*
X52700000Y-101700000D03*
X52700000Y-98900000D03*
D36*
X60600000Y-93100000D03*
X57800000Y-93100000D03*
D37*
X52890000Y-59600000D03*
X57110000Y-59600000D03*
D38*
X144400000Y-72150000D03*
X144400000Y-74050000D03*
X146400000Y-73100000D03*
X144400000Y-75350000D03*
X144400000Y-77250000D03*
X146400000Y-76300000D03*
X156200000Y-73750000D03*
X156200000Y-71850000D03*
X154200000Y-72800000D03*
X144400000Y-68950000D03*
X144400000Y-70850000D03*
X146400000Y-69900000D03*
D39*
X65950000Y-47800000D03*
X64650000Y-47800000D03*
X65650000Y-62000000D03*
X64350000Y-62000000D03*
D40*
X122050000Y-89950000D03*
X123950000Y-89950000D03*
X123000000Y-87850000D03*
X124850000Y-68750000D03*
X126750000Y-68750000D03*
X125800000Y-66650000D03*
X146550000Y-43550000D03*
X148450000Y-43550000D03*
X147500000Y-41450000D03*
D41*
X88600000Y-42850000D03*
X88600000Y-40950000D03*
X86400000Y-41900000D03*
D42*
X89650000Y-107850000D03*
X89650000Y-105950000D03*
X87550000Y-106900000D03*
D20*
X96850000Y-43100000D03*
X98750000Y-43100000D03*
X98750000Y-41200000D03*
X96850000Y-41200000D03*
D43*
X56600000Y-98395000D03*
X56600000Y-99665000D03*
X56600000Y-100935000D03*
X56600000Y-102205000D03*
X61800000Y-102205000D03*
X61800000Y-100935000D03*
X61800000Y-99665000D03*
X61800000Y-98395000D03*
D44*
X150025000Y-83055000D03*
X150025000Y-85595000D03*
X150025000Y-86865000D03*
X150025000Y-88135000D03*
X150025000Y-89405000D03*
X150025000Y-90675000D03*
X150025000Y-91945000D03*
X144375000Y-91945000D03*
X144375000Y-90675000D03*
X144375000Y-89405000D03*
X144375000Y-88135000D03*
X144375000Y-86865000D03*
X144375000Y-85595000D03*
X144375000Y-84325000D03*
X144375000Y-83055000D03*
X150025000Y-84325000D03*
X154825000Y-48355000D03*
X154825000Y-50895000D03*
X154825000Y-52165000D03*
X154825000Y-53435000D03*
X154825000Y-54705000D03*
X154825000Y-55975000D03*
X154825000Y-57245000D03*
X149175000Y-57245000D03*
X149175000Y-55975000D03*
X149175000Y-54705000D03*
X149175000Y-53435000D03*
X149175000Y-52165000D03*
X149175000Y-50895000D03*
X149175000Y-49625000D03*
X149175000Y-48355000D03*
X154825000Y-49625000D03*
X116625000Y-99255000D03*
X116625000Y-101795000D03*
X116625000Y-103065000D03*
X116625000Y-104335000D03*
X116625000Y-105605000D03*
X116625000Y-106875000D03*
X116625000Y-108145000D03*
X110975000Y-108145000D03*
X110975000Y-106875000D03*
X110975000Y-105605000D03*
X110975000Y-104335000D03*
X110975000Y-103065000D03*
X110975000Y-101795000D03*
X110975000Y-100525000D03*
X110975000Y-99255000D03*
X116625000Y-100525000D03*
D43*
X56600000Y-86195000D03*
X56600000Y-87465000D03*
X56600000Y-88735000D03*
X56600000Y-90005000D03*
X61800000Y-90005000D03*
X61800000Y-88735000D03*
X61800000Y-87465000D03*
X61800000Y-86195000D03*
D45*
X120200000Y-45277500D03*
X120200000Y-45912500D03*
X120200000Y-46547500D03*
X120200000Y-47182500D03*
X120200000Y-47817500D03*
X120200000Y-48452500D03*
X120200000Y-49087500D03*
X120200000Y-49722500D03*
X125600000Y-49722500D03*
X125600000Y-49087500D03*
X125600000Y-48452500D03*
X125600000Y-47817500D03*
X125600000Y-47182500D03*
X125600000Y-46547500D03*
X125600000Y-45912500D03*
X125600000Y-45277500D03*
D46*
X98350000Y-91755000D03*
X98350000Y-93025000D03*
X98350000Y-94295000D03*
X98350000Y-95565000D03*
X98350000Y-96835000D03*
X98350000Y-98105000D03*
X98350000Y-99375000D03*
X98350000Y-100645000D03*
X107650000Y-100645000D03*
X107650000Y-99375000D03*
X107650000Y-98105000D03*
X107650000Y-96835000D03*
X107650000Y-95565000D03*
X107650000Y-94295000D03*
X107650000Y-93025000D03*
X107650000Y-91755000D03*
D47*
X78537500Y-43800000D03*
D48*
X78087500Y-41500000D03*
D49*
X80162500Y-41500000D03*
X81837500Y-41500000D03*
D48*
X83912500Y-41500000D03*
D50*
X82300000Y-44160000D03*
X81650000Y-44160000D03*
X81000000Y-44160000D03*
X80350000Y-44160000D03*
X79700000Y-44160000D03*
D47*
X83462500Y-43800000D03*
D51*
X62200000Y-48300000D03*
X62200000Y-46000000D03*
X62200000Y-43700000D03*
D52*
X56400000Y-46000000D03*
D39*
X65250000Y-90000000D03*
X63950000Y-90000000D03*
D53*
X58850000Y-84400000D03*
X61350000Y-84400000D03*
X58950000Y-96500000D03*
X61450000Y-96500000D03*
D39*
X65350000Y-102200000D03*
X64050000Y-102200000D03*
D13*
X128000000Y-54300000D03*
X128000000Y-51500000D03*
D20*
X116450000Y-43300000D03*
X114550000Y-43300000D03*
X116450000Y-45300000D03*
X114550000Y-45300000D03*
X116450000Y-47300000D03*
X114550000Y-47300000D03*
X116450000Y-49300000D03*
X114550000Y-49300000D03*
D25*
X93250000Y-106600000D03*
X91750000Y-106600000D03*
X60650000Y-63500000D03*
X62150000Y-63500000D03*
D26*
X84300000Y-48150000D03*
X84300000Y-46650000D03*
D25*
X96150000Y-93000000D03*
X94650000Y-93000000D03*
X126850000Y-70800000D03*
X125350000Y-70800000D03*
X125250000Y-79500000D03*
X123750000Y-79500000D03*
X103850000Y-108900000D03*
X102350000Y-108900000D03*
X128250000Y-61600000D03*
X126750000Y-61600000D03*
D26*
X135900000Y-54850000D03*
X135900000Y-53350000D03*
D25*
X148050000Y-81300000D03*
X149550000Y-81300000D03*
D26*
X125800000Y-88150000D03*
X125800000Y-89650000D03*
X95900000Y-106850000D03*
X95900000Y-108350000D03*
X118700000Y-96450000D03*
X118700000Y-97950000D03*
D25*
X127950000Y-56200000D03*
X126450000Y-56200000D03*
D26*
X98200000Y-103250000D03*
X98200000Y-104750000D03*
X71700000Y-70750000D03*
X71700000Y-69250000D03*
D25*
X82850000Y-63600000D03*
X81350000Y-63600000D03*
X82850000Y-56300000D03*
X81350000Y-56300000D03*
D26*
X87800000Y-103950000D03*
X87800000Y-102450000D03*
X80800000Y-103850000D03*
X80800000Y-102350000D03*
X92300000Y-94350000D03*
X92300000Y-92850000D03*
D25*
X134850000Y-92300000D03*
X133350000Y-92300000D03*
X125350000Y-93700000D03*
X126850000Y-93700000D03*
X51450000Y-50600000D03*
X52950000Y-50600000D03*
X135950000Y-70400000D03*
X134450000Y-70400000D03*
X93650000Y-42000000D03*
X95150000Y-42000000D03*
X152150000Y-96700000D03*
X150650000Y-96700000D03*
X154450000Y-46900000D03*
X152950000Y-46900000D03*
X135950000Y-81500000D03*
X134450000Y-81500000D03*
X128050000Y-100900000D03*
X126550000Y-100900000D03*
D21*
X140600000Y-75800000D03*
X140600000Y-77800000D03*
X140600000Y-87000000D03*
X140600000Y-89000000D03*
D23*
X140100000Y-41900000D03*
X142100000Y-41900000D03*
X55400000Y-50600000D03*
X57400000Y-50600000D03*
D21*
X64800000Y-45000000D03*
X64800000Y-43000000D03*
D54*
X106700000Y-45107500D03*
X106700000Y-41892500D03*
X107700000Y-41892500D03*
X107700000Y-45107500D03*
X108700000Y-45107500D03*
X108700000Y-41892500D03*
X109700000Y-41892500D03*
X109700000Y-45107500D03*
X101700000Y-45107500D03*
X101700000Y-41892500D03*
X100700000Y-41892500D03*
X100700000Y-45107500D03*
X105700000Y-45107500D03*
X105700000Y-41892500D03*
X104700000Y-41892500D03*
X104700000Y-45107500D03*
X103700000Y-45107500D03*
X103700000Y-41892500D03*
X102700000Y-41892500D03*
X102700000Y-45107500D03*
D14*
X82800000Y-73050000D03*
X82800000Y-75550000D03*
D26*
X111100000Y-90950000D03*
X111100000Y-89450000D03*
X118900000Y-69950000D03*
X118900000Y-68450000D03*
X140300000Y-58250000D03*
X140300000Y-59750000D03*
M02*
