G04 #@! TF.FileFunction,Soldermask,Bot*
%FSLAX46Y46*%
G04 Gerber Fmt 4.6, Leading zero omitted, Abs format (unit mm)*
G04 Created by KiCad (PCBNEW 4.0.1-stable) date 26/04/2018 08:46:55*
%MOMM*%
G01*
G04 APERTURE LIST*
%ADD10C,0.100000*%
%ADD11C,4.400000*%
%ADD12R,2.100000X2.100000*%
%ADD13O,2.100000X2.100000*%
%ADD14R,1.920000X1.920000*%
%ADD15C,1.920000*%
G04 APERTURE END LIST*
D10*
D11*
X154500000Y-107500000D03*
X52500000Y-42500000D03*
X154500000Y-42500000D03*
X52500000Y-107500000D03*
D12*
X87500000Y-56800000D03*
D13*
X87500000Y-59340000D03*
X87500000Y-61880000D03*
D12*
X75000000Y-65000000D03*
D13*
X77540000Y-65000000D03*
X75000000Y-67540000D03*
X77540000Y-67540000D03*
X75000000Y-70080000D03*
X77540000Y-70080000D03*
X75000000Y-72620000D03*
X77540000Y-72620000D03*
X75000000Y-75160000D03*
X77540000Y-75160000D03*
X75000000Y-77700000D03*
X77540000Y-77700000D03*
X75000000Y-80240000D03*
X77540000Y-80240000D03*
X75000000Y-82780000D03*
X77540000Y-82780000D03*
D12*
X149100000Y-60000000D03*
D13*
X151640000Y-60000000D03*
X149100000Y-62540000D03*
X151640000Y-62540000D03*
X149100000Y-65080000D03*
X151640000Y-65080000D03*
X149100000Y-67620000D03*
X151640000Y-67620000D03*
X149100000Y-70160000D03*
X151640000Y-70160000D03*
X149100000Y-72700000D03*
X151640000Y-72700000D03*
X149100000Y-75240000D03*
X151640000Y-75240000D03*
X149100000Y-77780000D03*
X151640000Y-77780000D03*
D14*
X56270000Y-66110000D03*
D15*
X53730000Y-66110000D03*
X56270000Y-68650000D03*
X53730000Y-68650000D03*
X56270000Y-71190000D03*
X53730000Y-71190000D03*
X56270000Y-73730000D03*
X53730000Y-73730000D03*
X56270000Y-76270000D03*
X53730000Y-76270000D03*
X56270000Y-78810000D03*
X53730000Y-78810000D03*
X56270000Y-81350000D03*
X53730000Y-81350000D03*
X56270000Y-83890000D03*
X53730000Y-83890000D03*
M02*
