M48
;DRILL file {KiCad 4.0.1-stable} date 26/04/2018 08:46:57
;FORMAT={3:3/ absolute / metric / keep zeros}
FMAT,2
METRIC,TZ
T1C0.400
T2C1.000
T3C1.020
T4C2.500
%
G90
G05
M71
T1
X054100Y-048900
X058100Y-045400
X058100Y-046700
X062900Y-084400
X063000Y-096500
X064600Y-065000
X064900Y-057500
X065600Y-050500
X066000Y-071300
X066700Y-042600
X067300Y-091300
X068200Y-077700
X068800Y-071400
X068900Y-065100
X069100Y-069600
X069100Y-072600
X070500Y-060200
X070500Y-064200
X071700Y-067700
X071700Y-079400
X073000Y-062700
X073000Y-075800
X073200Y-072600
X073800Y-062700
X074500Y-093400
X074500Y-094900
X074500Y-097500
X076200Y-074000
X076400Y-058800
X076500Y-093200
X078100Y-097000
X078700Y-097900
X078800Y-053800
X079400Y-046100
X079400Y-047300
X079800Y-056300
X079900Y-071900
X080100Y-061600
X080800Y-064300
X080800Y-097400
X080800Y-102100
X081500Y-078900
X081600Y-067200
X081900Y-058000
X082100Y-053100
X082300Y-065300
X082800Y-086800
X083100Y-085500
X083200Y-045800
X083200Y-105700
X083700Y-101200
X084300Y-049100
X084300Y-080000
X084600Y-058000
X084600Y-060800
X084800Y-105700
X085300Y-065500
X085500Y-043800
X085600Y-086800
X085800Y-103950
X086100Y-065500
X086300Y-064200
X086800Y-066200
X087100Y-099900
X087400Y-089900
X087400Y-093400
X087700Y-040900
X088100Y-088200
X088200Y-044100
X088200Y-051000
X088200Y-082600
X088200Y-084000
X088300Y-079900
X088300Y-096700
X088600Y-088900
X089200Y-100600
X089500Y-083200
X089500Y-086500
X089700Y-049100
X089700Y-109000
X089800Y-094900
X090900Y-063300
X091500Y-060700
X091500Y-104600
X091700Y-051900
X091700Y-052800
X091700Y-053600
X091700Y-103400
X091800Y-054400
X092300Y-062400
X092300Y-087700
X092400Y-080200
X092400Y-081700
X092400Y-083500
X092400Y-085100
X092500Y-067200
X092500Y-069300
X092500Y-075100
X092600Y-042000
X093300Y-081000
X093300Y-082600
X093500Y-086300
X093900Y-055100
X094000Y-063500
X094000Y-064300
X094100Y-091900
X094300Y-108300
X095100Y-070500
X095100Y-071500
X095100Y-072400
X095100Y-073300
X095200Y-074100
X095200Y-075400
X095200Y-079200
X095500Y-086300
X095600Y-058900
X095600Y-064400
X095700Y-078400
X095800Y-098900
X096000Y-090400
X096300Y-041200
X096400Y-064400
X096400Y-086100
X096500Y-081500
X096700Y-050700
X096800Y-101900
X097000Y-100600
X097100Y-103200
X097200Y-082200
X097700Y-106900
X097800Y-064500
X098000Y-070400
X098400Y-090100
X098400Y-094300
X098700Y-064500
X098700Y-073900
X098800Y-106300
X098900Y-070400
X099100Y-061000
X099300Y-047200
X099300Y-048000
X099300Y-048900
X099300Y-049800
X099400Y-050700
X099400Y-074300
X099400Y-090300
X099500Y-064500
X099700Y-091700
X099800Y-045800
X099900Y-102500
X100000Y-070400
X100100Y-075000
X100200Y-058500
X100300Y-064400
X100300Y-086300
X100600Y-085200
X100600Y-098100
X100800Y-070400
X101300Y-057800
X101400Y-075300
X101700Y-042000
X101700Y-047800
X101800Y-076000
X101800Y-106600
X102300Y-063800
X102500Y-099800
X102700Y-041900
X102700Y-059600
X102900Y-105400
X103400Y-047900
X103700Y-041900
X103700Y-045107
X103700Y-105900
X103900Y-076700
X104000Y-059600
X104100Y-085100
X104150Y-089200
X104200Y-067500
X104300Y-073100
X104600Y-106200
X104700Y-041900
X105200Y-099400
X105400Y-063700
X105500Y-047800
X105700Y-041900
X105800Y-060800
X106100Y-102700
X106400Y-053500
X106700Y-041893
X106700Y-047200
X106800Y-066900
X107300Y-070300
X107300Y-071200
X107400Y-106200
X107600Y-084500
X107600Y-090900
X107600Y-099300
X107600Y-103400
X107700Y-041900
X107700Y-047800
X107700Y-058900
X108400Y-084500
X108600Y-070400
X108700Y-041893
X108700Y-045107
X109000Y-093000
X109100Y-056300
X109200Y-064400
X109300Y-063600
X110200Y-065000
X110600Y-086500
X110700Y-044400
X110900Y-042300
X110900Y-058300
X110900Y-059900
X110900Y-060700
X110900Y-066200
X110900Y-069600
X110975Y-101795
X111400Y-055100
X111800Y-066300
X111800Y-069600
X111800Y-071900
X111800Y-072900
X112300Y-086500
X112500Y-107900
X112500Y-109000
X112700Y-066200
X112700Y-069600
X112700Y-071800
X112900Y-064700
X113400Y-066900
X114000Y-065500
X114000Y-079500
X114100Y-070300
X114200Y-096900
X114200Y-106200
X114700Y-066900
X114700Y-069700
X114900Y-068900
X115000Y-068100
X115100Y-066200
X115100Y-094100
X115200Y-062300
X115300Y-078700
X115300Y-084750
X115300Y-100500
X115300Y-101800
X116400Y-087700
X117800Y-068500
X118100Y-072300
X118100Y-076600
X118100Y-078000
X118200Y-104300
X118300Y-101600
X118500Y-108600
X118700Y-095400
X118900Y-044400
X119000Y-083300
X119100Y-073500
X119400Y-071800
X119500Y-085500
X119800Y-063000
X119900Y-082400
X120000Y-083300
X120200Y-054800
X120200Y-074200
X120400Y-053200
X121000Y-079500
X121100Y-078500
X121200Y-053200
X121300Y-063000
X121600Y-045200
X121800Y-046600
X122000Y-049000
X122000Y-091400
X122300Y-063800
X122300Y-064700
X122400Y-058200
X122500Y-065500
X122600Y-079500
X123000Y-053100
X123600Y-061600
X123800Y-093700
X124100Y-045200
X124100Y-048400
X124200Y-082900
X124600Y-077600
X125000Y-053100
X125300Y-057600
X125500Y-100900
X125800Y-063100
X126000Y-061600
X126200Y-040500
X126200Y-042300
X126200Y-096700
X126300Y-078100
X126300Y-103100
X126500Y-075900
X126600Y-059600
X126700Y-065100
X126800Y-073500
X127000Y-066300
X127000Y-082300
X127200Y-090400
X127400Y-089100
X127500Y-049900
X127800Y-096800
X128000Y-108800
X128100Y-094400
X128400Y-102200
X128500Y-066700
X128600Y-078400
X128700Y-089300
X128850Y-096000
X129200Y-100900
X129300Y-065300
X129400Y-058900
X130000Y-078000
X130100Y-089600
X130400Y-044700
X130400Y-104600
X130700Y-078800
X131000Y-048100
X131200Y-094100
X131400Y-093300
X132000Y-088900
X132300Y-084000
X132300Y-086500
X132435Y-075535
X132700Y-050800
X133000Y-065000
X133000Y-094100
X133000Y-096000
X133100Y-088700
X133800Y-050600
X133800Y-076400
X133900Y-108900
X134100Y-094100
X134200Y-083000
X134300Y-095800
X134400Y-071400
X134500Y-062700
X134500Y-087100
X135600Y-065300
X136100Y-106900
X136200Y-105700
X136300Y-108800
X136700Y-044900
X136800Y-071400
X136900Y-064000
X137100Y-081500
X137300Y-056400
X137300Y-091700
X137300Y-093700
X137500Y-070400
X138200Y-045600
X138400Y-048900
X138600Y-091600
X138600Y-093700
X138600Y-098300
X139000Y-041900
X139000Y-044300
X139000Y-046800
X139400Y-094500
X140400Y-054000
X140500Y-060900
X140900Y-100600
X141000Y-094500
X142200Y-093800
X142700Y-084300
X142800Y-085600
X143100Y-043600
X143200Y-095800
X143300Y-041900
X144400Y-076100
X144400Y-093100
X145200Y-106200
X145200Y-108200
X145400Y-078300
X145700Y-097600
X145800Y-051700
X146200Y-085900
X147300Y-043600
X147300Y-081300
X147500Y-054700
X147700Y-047700
X147700Y-090800
X148100Y-085700
X148400Y-083100
X148400Y-088100
X148400Y-089400
X148600Y-040500
X149600Y-096700
X150500Y-050900
X150500Y-101500
X150800Y-105200
X151300Y-046500
X153000Y-053500
X153100Y-052200
X153100Y-056000
X153300Y-049600
X154100Y-079000
X154400Y-045900
X154600Y-095300
X154800Y-058400
X156000Y-099300
X156200Y-072800
X156300Y-068900
T2
X075000Y-065000
X075000Y-067540
X075000Y-070080
X075000Y-072620
X075000Y-075160
X075000Y-077700
X075000Y-080240
X075000Y-082780
X077540Y-065000
X077540Y-067540
X077540Y-070080
X077540Y-072620
X077540Y-075160
X077540Y-077700
X077540Y-080240
X077540Y-082780
X087500Y-056800
X087500Y-059340
X087500Y-061880
X149100Y-060000
X149100Y-062540
X149100Y-065080
X149100Y-067620
X149100Y-070160
X149100Y-072700
X149100Y-075240
X149100Y-077780
X151640Y-060000
X151640Y-062540
X151640Y-065080
X151640Y-067620
X151640Y-070160
X151640Y-072700
X151640Y-075240
X151640Y-077780
T3
X053730Y-066110
X053730Y-068650
X053730Y-071190
X053730Y-073730
X053730Y-076270
X053730Y-078810
X053730Y-081350
X053730Y-083890
X056270Y-066110
X056270Y-068650
X056270Y-071190
X056270Y-073730
X056270Y-076270
X056270Y-078810
X056270Y-081350
X056270Y-083890
T4
X052500Y-042500
X052500Y-107500
X154500Y-042500
X154500Y-107500
T0
M30
