G04 #@! TF.FileFunction,Legend,Top*
%FSLAX46Y46*%
G04 Gerber Fmt 4.6, Leading zero omitted, Abs format (unit mm)*
G04 Created by KiCad (PCBNEW 4.0.1-stable) date 26/04/2018 08:36:00*
%MOMM*%
G01*
G04 APERTURE LIST*
%ADD10C,0.100000*%
%ADD11C,0.150000*%
%ADD12C,0.120000*%
G04 APERTURE END LIST*
D10*
D11*
X77025000Y-91900000D02*
X86825000Y-91900000D01*
X77025000Y-81000000D02*
X86825000Y-81000000D01*
X86825000Y-81000000D02*
X86825000Y-91900000D01*
X77025000Y-91900000D02*
X77025000Y-81000000D01*
X120025000Y-91900000D02*
X129825000Y-91900000D01*
X120025000Y-81000000D02*
X129825000Y-81000000D01*
X129825000Y-81000000D02*
X129825000Y-91900000D01*
X120025000Y-91900000D02*
X120025000Y-81000000D01*
X120025000Y-105900000D02*
X129825000Y-105900000D01*
X120025000Y-95000000D02*
X129825000Y-95000000D01*
X129825000Y-95000000D02*
X129825000Y-105900000D01*
X120025000Y-105900000D02*
X120025000Y-95000000D01*
X120025000Y-119900000D02*
X129825000Y-119900000D01*
X120025000Y-109000000D02*
X129825000Y-109000000D01*
X129825000Y-109000000D02*
X129825000Y-119900000D01*
X120025000Y-119900000D02*
X120025000Y-109000000D01*
X120025000Y-133900000D02*
X129825000Y-133900000D01*
X120025000Y-123000000D02*
X129825000Y-123000000D01*
X129825000Y-123000000D02*
X129825000Y-133900000D01*
X120025000Y-133900000D02*
X120025000Y-123000000D01*
X120025000Y-147900000D02*
X129825000Y-147900000D01*
X120025000Y-137000000D02*
X129825000Y-137000000D01*
X129825000Y-137000000D02*
X129825000Y-147900000D01*
X120025000Y-147900000D02*
X120025000Y-137000000D01*
X89925000Y-58000000D02*
G75*
G03X89925000Y-58000000I-8000000J0D01*
G01*
X125925000Y-58000000D02*
G75*
G03X125925000Y-58000000I-8000000J0D01*
G01*
D12*
X112180000Y-66200000D02*
X112180000Y-67400000D01*
X110420000Y-67400000D02*
X110420000Y-66200000D01*
D11*
X77675000Y-78700000D02*
X86175000Y-78700000D01*
X77675000Y-68400000D02*
X86175000Y-68400000D01*
X86175000Y-68400000D02*
X86175000Y-78700000D01*
X77675000Y-78700000D02*
X77675000Y-68400000D01*
X113675000Y-78700000D02*
X122175000Y-78700000D01*
X113675000Y-68400000D02*
X122175000Y-68400000D01*
X122175000Y-68400000D02*
X122175000Y-78700000D01*
X113675000Y-78700000D02*
X113675000Y-68400000D01*
X106025000Y-91900000D02*
X115825000Y-91900000D01*
X106025000Y-81000000D02*
X115825000Y-81000000D01*
X115825000Y-81000000D02*
X115825000Y-91900000D01*
X106025000Y-91900000D02*
X106025000Y-81000000D01*
M02*
