G04 #@! TF.FileFunction,Soldermask,Bot*
%FSLAX46Y46*%
G04 Gerber Fmt 4.6, Leading zero omitted, Abs format (unit mm)*
G04 Created by KiCad (PCBNEW 4.0.1-stable) date 26/04/2018 08:36:00*
%MOMM*%
G01*
G04 APERTURE LIST*
%ADD10C,0.100000*%
%ADD11C,4.400000*%
%ADD12R,1.900000X3.400000*%
%ADD13R,3.400000X1.400000*%
%ADD14C,2.400000*%
%ADD15R,2.100000X2.100000*%
%ADD16O,2.100000X2.100000*%
%ADD17R,3.400000X1.900000*%
%ADD18O,2.400000X0.900000*%
%ADD19O,1.400000X0.900000*%
G04 APERTURE END LIST*
D10*
D11*
X67425000Y-146325000D03*
X132425000Y-44325000D03*
X132425000Y-146325000D03*
X67425000Y-44325000D03*
D12*
X77225000Y-87000000D03*
X86625000Y-87000000D03*
D13*
X81925000Y-90300000D03*
X81925000Y-82100000D03*
D12*
X120225000Y-87000000D03*
X129625000Y-87000000D03*
D13*
X124925000Y-90300000D03*
X124925000Y-82100000D03*
D12*
X120225000Y-101000000D03*
X129625000Y-101000000D03*
D13*
X124925000Y-104300000D03*
X124925000Y-96100000D03*
D12*
X120225000Y-115000000D03*
X129625000Y-115000000D03*
D13*
X124925000Y-118300000D03*
X124925000Y-110100000D03*
D12*
X120225000Y-129000000D03*
X129625000Y-129000000D03*
D13*
X124925000Y-132300000D03*
X124925000Y-124100000D03*
D12*
X120225000Y-143000000D03*
X129625000Y-143000000D03*
D13*
X124925000Y-146300000D03*
X124925000Y-138100000D03*
D14*
X78035000Y-54120000D03*
X78035000Y-61880000D03*
X76425000Y-58000000D03*
X81925000Y-63500000D03*
X81925000Y-52500000D03*
X86425000Y-58000000D03*
X114035000Y-54120000D03*
X114035000Y-61880000D03*
X112425000Y-58000000D03*
X117925000Y-63500000D03*
X117925000Y-52500000D03*
X122425000Y-58000000D03*
D15*
X89925000Y-131285000D03*
D16*
X89925000Y-133825000D03*
X92465000Y-131285000D03*
X92465000Y-133825000D03*
X95005000Y-131285000D03*
X95005000Y-133825000D03*
X97545000Y-131285000D03*
X97545000Y-133825000D03*
X100085000Y-131285000D03*
X100085000Y-133825000D03*
X102625000Y-131285000D03*
X102625000Y-133825000D03*
X105165000Y-131285000D03*
X105165000Y-133825000D03*
X107705000Y-131285000D03*
X107705000Y-133825000D03*
D15*
X84925000Y-47185000D03*
D16*
X84925000Y-49725000D03*
X87465000Y-47185000D03*
X87465000Y-49725000D03*
X90005000Y-47185000D03*
X90005000Y-49725000D03*
X92545000Y-47185000D03*
X92545000Y-49725000D03*
X95085000Y-47185000D03*
X95085000Y-49725000D03*
X97625000Y-47185000D03*
X97625000Y-49725000D03*
X100165000Y-47185000D03*
X100165000Y-49725000D03*
X102705000Y-47185000D03*
X102705000Y-49725000D03*
D12*
X86325000Y-72200000D03*
D17*
X81925000Y-69700000D03*
X81925000Y-77500000D03*
D12*
X122325000Y-72200000D03*
D17*
X117925000Y-69700000D03*
X117925000Y-77500000D03*
D12*
X106225000Y-87000000D03*
X115625000Y-87000000D03*
D13*
X110925000Y-90300000D03*
X110925000Y-82100000D03*
D18*
X99925000Y-67250000D03*
D19*
X102725000Y-65100000D03*
X97125000Y-65100000D03*
M02*
