M48
;DRILL file {KiCad 4.0.1-stable} date 26/04/2018 08:36:23
;FORMAT={3:3/ absolute / metric / keep zeros}
FMAT,2
METRIC,TZ
T1C0.400
T2C0.520
T3C0.810
T4C1.000
T5C1.100
T6C1.400
T7C2.500
T8C0.400
%
G90
G05
M71
T1
X074600Y-063900
X095000Y-128600
X097500Y-068700
X097500Y-128700
X098800Y-123300
X099300Y-062300
X099300Y-063900
X101700Y-067400
X104000Y-129000
X106300Y-106800
X133900Y-131700
T4
X084925Y-047185
X084925Y-049725
X087465Y-047185
X087465Y-049725
X089925Y-131285
X089925Y-133825
X090005Y-047185
X090005Y-049725
X092465Y-131285
X092465Y-133825
X092545Y-047185
X092545Y-049725
X095005Y-131285
X095005Y-133825
X095085Y-047185
X095085Y-049725
X097545Y-131285
X097545Y-133825
X097625Y-047185
X097625Y-049725
X100085Y-131285
X100085Y-133825
X100165Y-047185
X100165Y-049725
X102625Y-131285
X102625Y-133825
X102705Y-047185
X102705Y-049725
X105165Y-131285
X105165Y-133825
X107705Y-131285
X107705Y-133825
T6
X076425Y-058000
X078035Y-054120
X078035Y-061880
X081925Y-052500
X081925Y-063500
X086425Y-058000
X112425Y-058000
X114035Y-054120
X114035Y-061880
X117925Y-052500
X117925Y-063500
X122425Y-058000
T7
X067425Y-044325
X067425Y-146325
X132425Y-044325
X132425Y-146325
T2
X080885Y-082100G85X082965Y-082100
G05
X080885Y-090300G85X082965Y-090300
G05
X109885Y-082100G85X111965Y-082100
G05
X109885Y-090300G85X111965Y-090300
G05
X123885Y-082100G85X125965Y-082100
G05
X123885Y-090300G85X125965Y-090300
G05
X123885Y-096100G85X125965Y-096100
G05
X123885Y-104300G85X125965Y-104300
G05
X123885Y-110100G85X125965Y-110100
G05
X123885Y-118300G85X125965Y-118300
G05
X123885Y-124100G85X125965Y-124100
G05
X123885Y-132300G85X125965Y-132300
G05
X123885Y-138100G85X125965Y-138100
G05
X123885Y-146300G85X125965Y-146300
G05
T3
X081030Y-069700G85X082820Y-069700
G05
X081030Y-077500G85X082820Y-077500
G05
X086325Y-071305G85X086325Y-073095
G05
X117030Y-069700G85X118820Y-069700
G05
X117030Y-077500G85X118820Y-077500
G05
X122325Y-071305G85X122325Y-073095
G05
T5
X077225Y-086250G85X077225Y-087750
G05
X086625Y-086250G85X086625Y-087750
G05
X106225Y-086250G85X106225Y-087750
G05
X115625Y-086250G85X115625Y-087750
G05
X120225Y-086250G85X120225Y-087750
G05
X120225Y-100250G85X120225Y-101750
G05
X120225Y-114250G85X120225Y-115750
G05
X120225Y-128250G85X120225Y-129750
G05
X120225Y-142250G85X120225Y-143750
G05
X129625Y-086250G85X129625Y-087750
G05
X129625Y-100250G85X129625Y-101750
G05
X129625Y-114250G85X129625Y-115750
G05
X129625Y-128250G85X129625Y-129750
G05
X129625Y-142250G85X129625Y-143750
G05
T8
X096925Y-065100G85X097325Y-065100
G05
X099525Y-067250G85X100325Y-067250
G05
X102525Y-065100G85X102925Y-065100
G05
T0
M30
