G04 #@! TF.FileFunction,Copper,L2,Bot,Signal*
%FSLAX46Y46*%
G04 Gerber Fmt 4.6, Leading zero omitted, Abs format (unit mm)*
G04 Created by KiCad (PCBNEW 4.0.1-stable) date 26/04/2018 08:36:00*
%MOMM*%
G01*
G04 APERTURE LIST*
%ADD10C,0.100000*%
%ADD11C,4.000000*%
%ADD12R,1.500000X3.000000*%
%ADD13R,3.000000X1.000000*%
%ADD14C,2.000000*%
%ADD15R,1.700000X1.700000*%
%ADD16O,1.700000X1.700000*%
%ADD17R,3.000000X1.500000*%
%ADD18O,2.000000X0.500000*%
%ADD19O,1.000000X0.500000*%
%ADD20C,0.600000*%
%ADD21C,0.250000*%
%ADD22C,0.254000*%
G04 APERTURE END LIST*
D10*
D11*
X67425000Y-146325000D03*
X132425000Y-44325000D03*
X132425000Y-146325000D03*
X67425000Y-44325000D03*
D12*
X77225000Y-87000000D03*
X86625000Y-87000000D03*
D13*
X81925000Y-90300000D03*
X81925000Y-82100000D03*
D12*
X120225000Y-87000000D03*
X129625000Y-87000000D03*
D13*
X124925000Y-90300000D03*
X124925000Y-82100000D03*
D12*
X120225000Y-101000000D03*
X129625000Y-101000000D03*
D13*
X124925000Y-104300000D03*
X124925000Y-96100000D03*
D12*
X120225000Y-115000000D03*
X129625000Y-115000000D03*
D13*
X124925000Y-118300000D03*
X124925000Y-110100000D03*
D12*
X120225000Y-129000000D03*
X129625000Y-129000000D03*
D13*
X124925000Y-132300000D03*
X124925000Y-124100000D03*
D12*
X120225000Y-143000000D03*
X129625000Y-143000000D03*
D13*
X124925000Y-146300000D03*
X124925000Y-138100000D03*
D14*
X78035000Y-54120000D03*
X78035000Y-61880000D03*
X76425000Y-58000000D03*
X81925000Y-63500000D03*
X81925000Y-52500000D03*
X86425000Y-58000000D03*
X114035000Y-54120000D03*
X114035000Y-61880000D03*
X112425000Y-58000000D03*
X117925000Y-63500000D03*
X117925000Y-52500000D03*
X122425000Y-58000000D03*
D15*
X89925000Y-131285000D03*
D16*
X89925000Y-133825000D03*
X92465000Y-131285000D03*
X92465000Y-133825000D03*
X95005000Y-131285000D03*
X95005000Y-133825000D03*
X97545000Y-131285000D03*
X97545000Y-133825000D03*
X100085000Y-131285000D03*
X100085000Y-133825000D03*
X102625000Y-131285000D03*
X102625000Y-133825000D03*
X105165000Y-131285000D03*
X105165000Y-133825000D03*
X107705000Y-131285000D03*
X107705000Y-133825000D03*
D15*
X84925000Y-47185000D03*
D16*
X84925000Y-49725000D03*
X87465000Y-47185000D03*
X87465000Y-49725000D03*
X90005000Y-47185000D03*
X90005000Y-49725000D03*
X92545000Y-47185000D03*
X92545000Y-49725000D03*
X95085000Y-47185000D03*
X95085000Y-49725000D03*
X97625000Y-47185000D03*
X97625000Y-49725000D03*
X100165000Y-47185000D03*
X100165000Y-49725000D03*
X102705000Y-47185000D03*
X102705000Y-49725000D03*
D12*
X86325000Y-72200000D03*
D17*
X81925000Y-69700000D03*
X81925000Y-77500000D03*
D12*
X122325000Y-72200000D03*
D17*
X117925000Y-69700000D03*
X117925000Y-77500000D03*
D12*
X106225000Y-87000000D03*
X115625000Y-87000000D03*
D13*
X110925000Y-90300000D03*
X110925000Y-82100000D03*
D18*
X99925000Y-67250000D03*
D19*
X102725000Y-65100000D03*
X97125000Y-65100000D03*
D20*
X104000000Y-129000000D03*
X133900000Y-131700000D03*
X74600000Y-63900000D03*
X99300000Y-63900000D03*
X95000000Y-128600000D03*
X99300000Y-62300000D03*
X101700000Y-67400000D03*
X98800000Y-123300000D03*
X97500000Y-68700000D03*
X97500000Y-128700000D03*
X106300000Y-106800000D03*
D21*
X106225000Y-87000000D02*
X106225000Y-103075000D01*
X104000000Y-105300000D02*
X104000000Y-129000000D01*
X106225000Y-103075000D02*
X104000000Y-105300000D01*
X115625000Y-87000000D02*
X106225000Y-87000000D01*
X86625000Y-87000000D02*
X77225000Y-87000000D01*
X86625000Y-87000000D02*
X106225000Y-87000000D01*
X105165000Y-131285000D02*
X105165000Y-106360000D01*
X120225000Y-91300000D02*
X120225000Y-87000000D01*
X105165000Y-106360000D02*
X120225000Y-91300000D01*
X120225000Y-87000000D02*
X129625000Y-87000000D01*
X107705000Y-133825000D02*
X111800000Y-133825000D01*
X131350000Y-102725000D02*
X129625000Y-101000000D01*
X131350000Y-120825000D02*
X131350000Y-102725000D01*
X130825000Y-121350000D02*
X131350000Y-120825000D01*
X119725000Y-121350000D02*
X130825000Y-121350000D01*
X117850000Y-123225000D02*
X119725000Y-121350000D01*
X117850000Y-127775000D02*
X117850000Y-123225000D01*
X111800000Y-133825000D02*
X117850000Y-127775000D01*
X120225000Y-101000000D02*
X129625000Y-101000000D01*
X107705000Y-131285000D02*
X107705000Y-119570000D01*
X112275000Y-115000000D02*
X120225000Y-115000000D01*
X107705000Y-119570000D02*
X112275000Y-115000000D01*
X120225000Y-115000000D02*
X129625000Y-115000000D01*
X132600000Y-101900000D02*
X132600000Y-126025000D01*
X132600000Y-126025000D02*
X129625000Y-129000000D01*
X113600000Y-67900000D02*
X129249998Y-67900000D01*
X100165000Y-59865000D02*
X108200000Y-67900000D01*
X108200000Y-67900000D02*
X113600000Y-67900000D01*
X100165000Y-49725000D02*
X100165000Y-59865000D01*
X132600000Y-71250002D02*
X132600000Y-101900000D01*
X132600000Y-101900000D02*
X132600000Y-102000000D01*
X129249998Y-67900000D02*
X132600000Y-71250002D01*
X120225000Y-129000000D02*
X129625000Y-129000000D01*
X102705000Y-49725000D02*
X102705000Y-61005000D01*
X130900000Y-143000000D02*
X129625000Y-143000000D01*
X133200000Y-140700000D02*
X130900000Y-143000000D01*
X133200000Y-71000000D02*
X133200000Y-140700000D01*
X129600000Y-67400000D02*
X133200000Y-71000000D01*
X109100000Y-67400000D02*
X129600000Y-67400000D01*
X102705000Y-61005000D02*
X109100000Y-67400000D01*
X120225000Y-143000000D02*
X129625000Y-143000000D01*
X92465000Y-131285000D02*
X89925000Y-131285000D01*
X89925000Y-133825000D02*
X92465000Y-133825000D01*
X133800000Y-131600000D02*
X133900000Y-131700000D01*
X133800000Y-94400000D02*
X133800000Y-131600000D01*
X114035000Y-54120000D02*
X130620000Y-54120000D01*
X133800000Y-57300000D02*
X133800000Y-94400000D01*
X133800000Y-94400000D02*
X133800000Y-94600000D01*
X130620000Y-54120000D02*
X133800000Y-57300000D01*
X100085000Y-123285000D02*
X74600000Y-97800000D01*
X74600000Y-97800000D02*
X74600000Y-63900000D01*
X100085000Y-131285000D02*
X100085000Y-123285000D01*
X102625000Y-131285000D02*
X102625000Y-122625000D01*
X78035000Y-59365000D02*
X78035000Y-54120000D01*
X75450000Y-61950000D02*
X78035000Y-59365000D01*
X75450000Y-95450000D02*
X75450000Y-61950000D01*
X102625000Y-122625000D02*
X75450000Y-95450000D01*
X81925000Y-69700000D02*
X81925000Y-69175000D01*
X81925000Y-69175000D02*
X88800000Y-62300000D01*
X88800000Y-48520000D02*
X87465000Y-47185000D01*
X88800000Y-62300000D02*
X88800000Y-48520000D01*
X81925000Y-69700000D02*
X117925000Y-69700000D01*
X81925000Y-77500000D02*
X117925000Y-77500000D01*
X84925000Y-47185000D02*
X82915000Y-47185000D01*
X80100000Y-77500000D02*
X81925000Y-77500000D01*
X79900000Y-77300000D02*
X80100000Y-77500000D01*
X79900000Y-50200000D02*
X79900000Y-77300000D01*
X82915000Y-47185000D02*
X79900000Y-50200000D01*
X95005000Y-128605000D02*
X95000000Y-128600000D01*
X95005000Y-128605000D02*
X95005000Y-131285000D01*
X99300000Y-63900000D02*
X99300000Y-62300000D01*
X100900000Y-68700000D02*
X101700000Y-67900000D01*
X101700000Y-67900000D02*
X101700000Y-67400000D01*
X95005000Y-133495000D02*
X96000000Y-132500000D01*
X98800000Y-132100000D02*
X98800000Y-125600000D01*
X98400000Y-132500000D02*
X98800000Y-132100000D01*
X96000000Y-132500000D02*
X98400000Y-132500000D01*
X98800000Y-123300000D02*
X98800000Y-125600000D01*
X97500000Y-68700000D02*
X100900000Y-68700000D01*
X95005000Y-133825000D02*
X95005000Y-133495000D01*
X95005000Y-133825000D02*
X94625000Y-133825000D01*
X97545000Y-128745000D02*
X97500000Y-128700000D01*
X97545000Y-128745000D02*
X97545000Y-131285000D01*
X106400000Y-106900000D02*
X106300000Y-106800000D01*
X106400000Y-130600000D02*
X106400000Y-106900000D01*
X105165000Y-133825000D02*
X105675000Y-133825000D01*
X105675000Y-133825000D02*
X106400000Y-133100000D01*
X106400000Y-133100000D02*
X106400000Y-130600000D01*
X106400000Y-130600000D02*
X106400000Y-130400000D01*
D22*
G36*
X130729584Y-42449978D02*
X132425000Y-44145395D01*
X132439142Y-44131252D01*
X132618748Y-44310858D01*
X132604605Y-44325000D01*
X134300022Y-46020416D01*
X134323000Y-46006732D01*
X134323000Y-56931705D01*
X134261034Y-56838966D01*
X131081034Y-53658966D01*
X130869510Y-53517631D01*
X130828113Y-53509396D01*
X130620000Y-53467999D01*
X130619995Y-53468000D01*
X119116701Y-53468000D01*
X119218773Y-53366106D01*
X119451735Y-52805072D01*
X119452265Y-52197593D01*
X119220283Y-51636154D01*
X118791106Y-51206227D01*
X118230072Y-50973265D01*
X117622593Y-50972735D01*
X117061154Y-51204717D01*
X116631227Y-51633894D01*
X116398265Y-52194928D01*
X116397735Y-52802407D01*
X116629717Y-53363846D01*
X116733689Y-53468000D01*
X115417816Y-53468000D01*
X115330283Y-53256154D01*
X114901106Y-52826227D01*
X114340072Y-52593265D01*
X113732593Y-52592735D01*
X113171154Y-52824717D01*
X112741227Y-53253894D01*
X112508265Y-53814928D01*
X112507735Y-54422407D01*
X112739717Y-54983846D01*
X113168894Y-55413773D01*
X113729928Y-55646735D01*
X114337407Y-55647265D01*
X114898846Y-55415283D01*
X115328773Y-54986106D01*
X115417678Y-54772000D01*
X130349932Y-54772000D01*
X133148000Y-57570068D01*
X133148000Y-70025933D01*
X130061034Y-66938966D01*
X130049007Y-66930930D01*
X129849510Y-66797631D01*
X129808113Y-66789396D01*
X129600000Y-66747999D01*
X129599995Y-66748000D01*
X109370067Y-66748000D01*
X106424475Y-63802407D01*
X116397735Y-63802407D01*
X116629717Y-64363846D01*
X117058894Y-64793773D01*
X117619928Y-65026735D01*
X118227407Y-65027265D01*
X118788846Y-64795283D01*
X119218773Y-64366106D01*
X119451735Y-63805072D01*
X119452265Y-63197593D01*
X119220283Y-62636154D01*
X118791106Y-62206227D01*
X118230072Y-61973265D01*
X117622593Y-61972735D01*
X117061154Y-62204717D01*
X116631227Y-62633894D01*
X116398265Y-63194928D01*
X116397735Y-63802407D01*
X106424475Y-63802407D01*
X104804475Y-62182407D01*
X112507735Y-62182407D01*
X112739717Y-62743846D01*
X113168894Y-63173773D01*
X113729928Y-63406735D01*
X114337407Y-63407265D01*
X114898846Y-63175283D01*
X115328773Y-62746106D01*
X115561735Y-62185072D01*
X115562265Y-61577593D01*
X115330283Y-61016154D01*
X114901106Y-60586227D01*
X114340072Y-60353265D01*
X113732593Y-60352735D01*
X113171154Y-60584717D01*
X112741227Y-61013894D01*
X112508265Y-61574928D01*
X112507735Y-62182407D01*
X104804475Y-62182407D01*
X103357000Y-60734932D01*
X103357000Y-59152532D01*
X111452073Y-59152532D01*
X111550736Y-59419387D01*
X112160461Y-59645908D01*
X112810460Y-59621856D01*
X113299264Y-59419387D01*
X113397927Y-59152532D01*
X112425000Y-58179605D01*
X111452073Y-59152532D01*
X103357000Y-59152532D01*
X103357000Y-57735461D01*
X110779092Y-57735461D01*
X110803144Y-58385460D01*
X111005613Y-58874264D01*
X111272468Y-58972927D01*
X112245395Y-58000000D01*
X112604605Y-58000000D01*
X113577532Y-58972927D01*
X113844387Y-58874264D01*
X114056839Y-58302407D01*
X120897735Y-58302407D01*
X121129717Y-58863846D01*
X121558894Y-59293773D01*
X122119928Y-59526735D01*
X122727407Y-59527265D01*
X123288846Y-59295283D01*
X123718773Y-58866106D01*
X123951735Y-58305072D01*
X123952265Y-57697593D01*
X123720283Y-57136154D01*
X123291106Y-56706227D01*
X122730072Y-56473265D01*
X122122593Y-56472735D01*
X121561154Y-56704717D01*
X121131227Y-57133894D01*
X120898265Y-57694928D01*
X120897735Y-58302407D01*
X114056839Y-58302407D01*
X114070908Y-58264539D01*
X114046856Y-57614540D01*
X113844387Y-57125736D01*
X113577532Y-57027073D01*
X112604605Y-58000000D01*
X112245395Y-58000000D01*
X111272468Y-57027073D01*
X111005613Y-57125736D01*
X110779092Y-57735461D01*
X103357000Y-57735461D01*
X103357000Y-56847468D01*
X111452073Y-56847468D01*
X112425000Y-57820395D01*
X113397927Y-56847468D01*
X113299264Y-56580613D01*
X112689539Y-56354092D01*
X112039540Y-56378144D01*
X111550736Y-56580613D01*
X111452073Y-56847468D01*
X103357000Y-56847468D01*
X103357000Y-50940607D01*
X103678686Y-50725663D01*
X103977182Y-50278932D01*
X104082000Y-49751977D01*
X104082000Y-49698023D01*
X103977182Y-49171068D01*
X103678686Y-48724337D01*
X103275595Y-48455000D01*
X103678686Y-48185663D01*
X103977182Y-47738932D01*
X104082000Y-47211977D01*
X104082000Y-47158023D01*
X103977182Y-46631068D01*
X103689167Y-46200022D01*
X130729584Y-46200022D01*
X130950353Y-46570743D01*
X131922012Y-46964119D01*
X132970247Y-46955713D01*
X133899647Y-46570743D01*
X134120416Y-46200022D01*
X132425000Y-44504605D01*
X130729584Y-46200022D01*
X103689167Y-46200022D01*
X103678686Y-46184337D01*
X103231955Y-45885841D01*
X102705000Y-45781023D01*
X102178045Y-45885841D01*
X101731314Y-46184337D01*
X101435000Y-46627802D01*
X101138686Y-46184337D01*
X100691955Y-45885841D01*
X100165000Y-45781023D01*
X99638045Y-45885841D01*
X99191314Y-46184337D01*
X98940463Y-46559762D01*
X98820183Y-46303642D01*
X98391924Y-45913355D01*
X97981890Y-45743524D01*
X97752000Y-45864845D01*
X97752000Y-47058000D01*
X97772000Y-47058000D01*
X97772000Y-47312000D01*
X97752000Y-47312000D01*
X97752000Y-47332000D01*
X97498000Y-47332000D01*
X97498000Y-47312000D01*
X97478000Y-47312000D01*
X97478000Y-47058000D01*
X97498000Y-47058000D01*
X97498000Y-45864845D01*
X97268110Y-45743524D01*
X96858076Y-45913355D01*
X96429817Y-46303642D01*
X96309537Y-46559762D01*
X96058686Y-46184337D01*
X95611955Y-45885841D01*
X95085000Y-45781023D01*
X94558045Y-45885841D01*
X94111314Y-46184337D01*
X93815000Y-46627802D01*
X93518686Y-46184337D01*
X93071955Y-45885841D01*
X92545000Y-45781023D01*
X92018045Y-45885841D01*
X91571314Y-46184337D01*
X91320463Y-46559762D01*
X91200183Y-46303642D01*
X90771924Y-45913355D01*
X90361890Y-45743524D01*
X90132000Y-45864845D01*
X90132000Y-47058000D01*
X90152000Y-47058000D01*
X90152000Y-47312000D01*
X90132000Y-47312000D01*
X90132000Y-47332000D01*
X89878000Y-47332000D01*
X89878000Y-47312000D01*
X89858000Y-47312000D01*
X89858000Y-47058000D01*
X89878000Y-47058000D01*
X89878000Y-45864845D01*
X89648110Y-45743524D01*
X89238076Y-45913355D01*
X88809817Y-46303642D01*
X88689537Y-46559762D01*
X88438686Y-46184337D01*
X87991955Y-45885841D01*
X87465000Y-45781023D01*
X86938045Y-45885841D01*
X86491314Y-46184337D01*
X86312324Y-46452215D01*
X86312324Y-46335000D01*
X86275577Y-46139706D01*
X86160158Y-45960340D01*
X85984049Y-45840010D01*
X85775000Y-45797676D01*
X84075000Y-45797676D01*
X83879706Y-45834423D01*
X83700340Y-45949842D01*
X83580010Y-46125951D01*
X83537676Y-46335000D01*
X83537676Y-46533000D01*
X82915005Y-46533000D01*
X82915000Y-46532999D01*
X82706887Y-46574396D01*
X82665490Y-46582631D01*
X82453966Y-46723966D01*
X79438966Y-49738966D01*
X79297631Y-49950490D01*
X79297631Y-49950491D01*
X79247999Y-50200000D01*
X79248000Y-50200005D01*
X79248000Y-53173727D01*
X78901106Y-52826227D01*
X78340072Y-52593265D01*
X77732593Y-52592735D01*
X77171154Y-52824717D01*
X76741227Y-53253894D01*
X76508265Y-53814928D01*
X76507735Y-54422407D01*
X76739717Y-54983846D01*
X77168894Y-55413773D01*
X77383000Y-55502678D01*
X77383000Y-56798282D01*
X77291106Y-56706227D01*
X76730072Y-56473265D01*
X76122593Y-56472735D01*
X75561154Y-56704717D01*
X75131227Y-57133894D01*
X74898265Y-57694928D01*
X74897735Y-58302407D01*
X75129717Y-58863846D01*
X75558894Y-59293773D01*
X76119928Y-59526735D01*
X76727407Y-59527265D01*
X77107872Y-59370060D01*
X74988966Y-61488966D01*
X74847631Y-61700490D01*
X74847631Y-61700491D01*
X74797999Y-61950000D01*
X74798000Y-61950005D01*
X74798000Y-63086755D01*
X74765222Y-63073144D01*
X74436221Y-63072857D01*
X74132154Y-63198495D01*
X73899312Y-63430930D01*
X73773144Y-63734778D01*
X73772857Y-64063779D01*
X73898495Y-64367846D01*
X73948000Y-64417438D01*
X73948000Y-97799995D01*
X73947999Y-97800000D01*
X73989396Y-98008113D01*
X73997631Y-98049510D01*
X74138966Y-98261034D01*
X98434245Y-122556312D01*
X98332154Y-122598495D01*
X98099312Y-122830930D01*
X97973144Y-123134778D01*
X97972857Y-123463779D01*
X98098495Y-123767846D01*
X98148000Y-123817438D01*
X98148000Y-128178555D01*
X97969070Y-127999312D01*
X97665222Y-127873144D01*
X97336221Y-127872857D01*
X97032154Y-127998495D01*
X96799312Y-128230930D01*
X96673144Y-128534778D01*
X96672857Y-128863779D01*
X96798495Y-129167846D01*
X96893000Y-129262516D01*
X96893000Y-130069393D01*
X96571314Y-130284337D01*
X96275000Y-130727802D01*
X95978686Y-130284337D01*
X95657000Y-130069393D01*
X95657000Y-129112682D01*
X95700688Y-129069070D01*
X95826856Y-128765222D01*
X95827143Y-128436221D01*
X95701505Y-128132154D01*
X95469070Y-127899312D01*
X95165222Y-127773144D01*
X94836221Y-127772857D01*
X94532154Y-127898495D01*
X94299312Y-128130930D01*
X94173144Y-128434778D01*
X94172857Y-128763779D01*
X94298495Y-129067846D01*
X94353000Y-129122446D01*
X94353000Y-130069393D01*
X94031314Y-130284337D01*
X93735000Y-130727802D01*
X93438686Y-130284337D01*
X92991955Y-129985841D01*
X92465000Y-129881023D01*
X91938045Y-129985841D01*
X91491314Y-130284337D01*
X91312324Y-130552215D01*
X91312324Y-130435000D01*
X91275577Y-130239706D01*
X91160158Y-130060340D01*
X90984049Y-129940010D01*
X90775000Y-129897676D01*
X89075000Y-129897676D01*
X88879706Y-129934423D01*
X88700340Y-130049842D01*
X88580010Y-130225951D01*
X88537676Y-130435000D01*
X88537676Y-132135000D01*
X88574423Y-132330294D01*
X88689842Y-132509660D01*
X88865951Y-132629990D01*
X89075000Y-132672324D01*
X89178818Y-132672324D01*
X88951314Y-132824337D01*
X88652818Y-133271068D01*
X88548000Y-133798023D01*
X88548000Y-133851977D01*
X88652818Y-134378932D01*
X88951314Y-134825663D01*
X89398045Y-135124159D01*
X89925000Y-135228977D01*
X90451955Y-135124159D01*
X90898686Y-134825663D01*
X91131655Y-134477000D01*
X91258345Y-134477000D01*
X91491314Y-134825663D01*
X91938045Y-135124159D01*
X92465000Y-135228977D01*
X92991955Y-135124159D01*
X93438686Y-134825663D01*
X93735000Y-134382198D01*
X94031314Y-134825663D01*
X94478045Y-135124159D01*
X95005000Y-135228977D01*
X95531955Y-135124159D01*
X95978686Y-134825663D01*
X96275000Y-134382198D01*
X96571314Y-134825663D01*
X97018045Y-135124159D01*
X97545000Y-135228977D01*
X98071955Y-135124159D01*
X98518686Y-134825663D01*
X98815000Y-134382198D01*
X99111314Y-134825663D01*
X99558045Y-135124159D01*
X100085000Y-135228977D01*
X100611955Y-135124159D01*
X101058686Y-134825663D01*
X101309537Y-134450238D01*
X101429817Y-134706358D01*
X101858076Y-135096645D01*
X102268110Y-135266476D01*
X102498000Y-135145155D01*
X102498000Y-133952000D01*
X102478000Y-133952000D01*
X102478000Y-133698000D01*
X102498000Y-133698000D01*
X102498000Y-133678000D01*
X102752000Y-133678000D01*
X102752000Y-133698000D01*
X102772000Y-133698000D01*
X102772000Y-133952000D01*
X102752000Y-133952000D01*
X102752000Y-135145155D01*
X102981890Y-135266476D01*
X103391924Y-135096645D01*
X103820183Y-134706358D01*
X103940463Y-134450238D01*
X104191314Y-134825663D01*
X104638045Y-135124159D01*
X105165000Y-135228977D01*
X105691955Y-135124159D01*
X106138686Y-134825663D01*
X106435000Y-134382198D01*
X106731314Y-134825663D01*
X107178045Y-135124159D01*
X107705000Y-135228977D01*
X108231955Y-135124159D01*
X108678686Y-134825663D01*
X108911655Y-134477000D01*
X111799995Y-134477000D01*
X111800000Y-134477001D01*
X112008113Y-134435604D01*
X112049510Y-134427369D01*
X112261034Y-134286034D01*
X114747068Y-131800000D01*
X122887676Y-131800000D01*
X122887676Y-132800000D01*
X122924423Y-132995294D01*
X123039842Y-133174660D01*
X123215951Y-133294990D01*
X123425000Y-133337324D01*
X126425000Y-133337324D01*
X126620294Y-133300577D01*
X126799660Y-133185158D01*
X126919990Y-133009049D01*
X126962324Y-132800000D01*
X126962324Y-131800000D01*
X126925577Y-131604706D01*
X126810158Y-131425340D01*
X126634049Y-131305010D01*
X126425000Y-131262676D01*
X123425000Y-131262676D01*
X123229706Y-131299423D01*
X123050340Y-131414842D01*
X122930010Y-131590951D01*
X122887676Y-131800000D01*
X114747068Y-131800000D01*
X118311034Y-128236034D01*
X118314444Y-128230930D01*
X118452369Y-128024510D01*
X118502000Y-127775000D01*
X118502000Y-124385750D01*
X122790000Y-124385750D01*
X122790000Y-124726310D01*
X122886673Y-124959699D01*
X123065302Y-125138327D01*
X123298691Y-125235000D01*
X124639250Y-125235000D01*
X124798000Y-125076250D01*
X124798000Y-124227000D01*
X125052000Y-124227000D01*
X125052000Y-125076250D01*
X125210750Y-125235000D01*
X126551309Y-125235000D01*
X126784698Y-125138327D01*
X126963327Y-124959699D01*
X127060000Y-124726310D01*
X127060000Y-124385750D01*
X126901250Y-124227000D01*
X125052000Y-124227000D01*
X124798000Y-124227000D01*
X122948750Y-124227000D01*
X122790000Y-124385750D01*
X118502000Y-124385750D01*
X118502000Y-123495068D01*
X118523377Y-123473690D01*
X122790000Y-123473690D01*
X122790000Y-123814250D01*
X122948750Y-123973000D01*
X124798000Y-123973000D01*
X124798000Y-123123750D01*
X125052000Y-123123750D01*
X125052000Y-123973000D01*
X126901250Y-123973000D01*
X127060000Y-123814250D01*
X127060000Y-123473690D01*
X126963327Y-123240301D01*
X126784698Y-123061673D01*
X126551309Y-122965000D01*
X125210750Y-122965000D01*
X125052000Y-123123750D01*
X124798000Y-123123750D01*
X124639250Y-122965000D01*
X123298691Y-122965000D01*
X123065302Y-123061673D01*
X122886673Y-123240301D01*
X122790000Y-123473690D01*
X118523377Y-123473690D01*
X119995067Y-122002000D01*
X130824995Y-122002000D01*
X130825000Y-122002001D01*
X131033113Y-121960604D01*
X131074510Y-121952369D01*
X131286034Y-121811034D01*
X131811034Y-121286034D01*
X131935009Y-121100491D01*
X131948000Y-121081049D01*
X131948000Y-125754933D01*
X130651699Y-127051233D01*
X130584049Y-127005010D01*
X130375000Y-126962676D01*
X128875000Y-126962676D01*
X128679706Y-126999423D01*
X128500340Y-127114842D01*
X128380010Y-127290951D01*
X128337676Y-127500000D01*
X128337676Y-128348000D01*
X121512324Y-128348000D01*
X121512324Y-127500000D01*
X121475577Y-127304706D01*
X121360158Y-127125340D01*
X121184049Y-127005010D01*
X120975000Y-126962676D01*
X119475000Y-126962676D01*
X119279706Y-126999423D01*
X119100340Y-127114842D01*
X118980010Y-127290951D01*
X118937676Y-127500000D01*
X118937676Y-130500000D01*
X118974423Y-130695294D01*
X119089842Y-130874660D01*
X119265951Y-130994990D01*
X119475000Y-131037324D01*
X120975000Y-131037324D01*
X121170294Y-131000577D01*
X121349660Y-130885158D01*
X121469990Y-130709049D01*
X121512324Y-130500000D01*
X121512324Y-129652000D01*
X128337676Y-129652000D01*
X128337676Y-130500000D01*
X128374423Y-130695294D01*
X128489842Y-130874660D01*
X128665951Y-130994990D01*
X128875000Y-131037324D01*
X130375000Y-131037324D01*
X130570294Y-131000577D01*
X130749660Y-130885158D01*
X130869990Y-130709049D01*
X130912324Y-130500000D01*
X130912324Y-128634744D01*
X132548000Y-126999067D01*
X132548000Y-140429933D01*
X130912324Y-142065608D01*
X130912324Y-141500000D01*
X130875577Y-141304706D01*
X130760158Y-141125340D01*
X130584049Y-141005010D01*
X130375000Y-140962676D01*
X128875000Y-140962676D01*
X128679706Y-140999423D01*
X128500340Y-141114842D01*
X128380010Y-141290951D01*
X128337676Y-141500000D01*
X128337676Y-142348000D01*
X121512324Y-142348000D01*
X121512324Y-141500000D01*
X121475577Y-141304706D01*
X121360158Y-141125340D01*
X121184049Y-141005010D01*
X120975000Y-140962676D01*
X119475000Y-140962676D01*
X119279706Y-140999423D01*
X119100340Y-141114842D01*
X118980010Y-141290951D01*
X118937676Y-141500000D01*
X118937676Y-144500000D01*
X118974423Y-144695294D01*
X119089842Y-144874660D01*
X119265951Y-144994990D01*
X119475000Y-145037324D01*
X120975000Y-145037324D01*
X121170294Y-145000577D01*
X121349660Y-144885158D01*
X121469990Y-144709049D01*
X121512324Y-144500000D01*
X121512324Y-143652000D01*
X128337676Y-143652000D01*
X128337676Y-144500000D01*
X128374423Y-144695294D01*
X128489842Y-144874660D01*
X128665951Y-144994990D01*
X128875000Y-145037324D01*
X130103562Y-145037324D01*
X129785881Y-145822012D01*
X129794287Y-146870247D01*
X130179257Y-147799647D01*
X130549978Y-148020416D01*
X132245395Y-146325000D01*
X132231252Y-146310858D01*
X132410858Y-146131252D01*
X132425000Y-146145395D01*
X134120416Y-144449978D01*
X133899647Y-144079257D01*
X132927988Y-143685881D01*
X131879753Y-143694287D01*
X130950353Y-144079257D01*
X130912324Y-144143116D01*
X130912324Y-143649550D01*
X131108113Y-143610604D01*
X131149510Y-143602369D01*
X131361034Y-143461034D01*
X133661031Y-141161036D01*
X133661034Y-141161034D01*
X133802369Y-140949510D01*
X133852000Y-140700000D01*
X133852000Y-132526958D01*
X134063779Y-132527143D01*
X134323000Y-132420035D01*
X134323000Y-144643268D01*
X134300022Y-144629584D01*
X132604605Y-146325000D01*
X132618748Y-146339142D01*
X132439142Y-146518748D01*
X132425000Y-146504605D01*
X130729584Y-148200022D01*
X130743268Y-148223000D01*
X69106732Y-148223000D01*
X69120416Y-148200022D01*
X67425000Y-146504605D01*
X67410858Y-146518748D01*
X67231252Y-146339142D01*
X67245395Y-146325000D01*
X67604605Y-146325000D01*
X69300022Y-148020416D01*
X69670743Y-147799647D01*
X70064119Y-146827988D01*
X70055876Y-145800000D01*
X122887676Y-145800000D01*
X122887676Y-146800000D01*
X122924423Y-146995294D01*
X123039842Y-147174660D01*
X123215951Y-147294990D01*
X123425000Y-147337324D01*
X126425000Y-147337324D01*
X126620294Y-147300577D01*
X126799660Y-147185158D01*
X126919990Y-147009049D01*
X126962324Y-146800000D01*
X126962324Y-145800000D01*
X126925577Y-145604706D01*
X126810158Y-145425340D01*
X126634049Y-145305010D01*
X126425000Y-145262676D01*
X123425000Y-145262676D01*
X123229706Y-145299423D01*
X123050340Y-145414842D01*
X122930010Y-145590951D01*
X122887676Y-145800000D01*
X70055876Y-145800000D01*
X70055713Y-145779753D01*
X69670743Y-144850353D01*
X69300022Y-144629584D01*
X67604605Y-146325000D01*
X67245395Y-146325000D01*
X65549978Y-144629584D01*
X65527000Y-144643268D01*
X65527000Y-144449978D01*
X65729584Y-144449978D01*
X67425000Y-146145395D01*
X69120416Y-144449978D01*
X68899647Y-144079257D01*
X67927988Y-143685881D01*
X66879753Y-143694287D01*
X65950353Y-144079257D01*
X65729584Y-144449978D01*
X65527000Y-144449978D01*
X65527000Y-138385750D01*
X122790000Y-138385750D01*
X122790000Y-138726310D01*
X122886673Y-138959699D01*
X123065302Y-139138327D01*
X123298691Y-139235000D01*
X124639250Y-139235000D01*
X124798000Y-139076250D01*
X124798000Y-138227000D01*
X125052000Y-138227000D01*
X125052000Y-139076250D01*
X125210750Y-139235000D01*
X126551309Y-139235000D01*
X126784698Y-139138327D01*
X126963327Y-138959699D01*
X127060000Y-138726310D01*
X127060000Y-138385750D01*
X126901250Y-138227000D01*
X125052000Y-138227000D01*
X124798000Y-138227000D01*
X122948750Y-138227000D01*
X122790000Y-138385750D01*
X65527000Y-138385750D01*
X65527000Y-137473690D01*
X122790000Y-137473690D01*
X122790000Y-137814250D01*
X122948750Y-137973000D01*
X124798000Y-137973000D01*
X124798000Y-137123750D01*
X125052000Y-137123750D01*
X125052000Y-137973000D01*
X126901250Y-137973000D01*
X127060000Y-137814250D01*
X127060000Y-137473690D01*
X126963327Y-137240301D01*
X126784698Y-137061673D01*
X126551309Y-136965000D01*
X125210750Y-136965000D01*
X125052000Y-137123750D01*
X124798000Y-137123750D01*
X124639250Y-136965000D01*
X123298691Y-136965000D01*
X123065302Y-137061673D01*
X122886673Y-137240301D01*
X122790000Y-137473690D01*
X65527000Y-137473690D01*
X65527000Y-46200022D01*
X65729584Y-46200022D01*
X65950353Y-46570743D01*
X66922012Y-46964119D01*
X67970247Y-46955713D01*
X68899647Y-46570743D01*
X69120416Y-46200022D01*
X67425000Y-44504605D01*
X65729584Y-46200022D01*
X65527000Y-46200022D01*
X65527000Y-46006732D01*
X65549978Y-46020416D01*
X67245395Y-44325000D01*
X67604605Y-44325000D01*
X69300022Y-46020416D01*
X69670743Y-45799647D01*
X70064119Y-44827988D01*
X70056052Y-43822012D01*
X129785881Y-43822012D01*
X129794287Y-44870247D01*
X130179257Y-45799647D01*
X130549978Y-46020416D01*
X132245395Y-44325000D01*
X130549978Y-42629584D01*
X130179257Y-42850353D01*
X129785881Y-43822012D01*
X70056052Y-43822012D01*
X70055713Y-43779753D01*
X69670743Y-42850353D01*
X69300022Y-42629584D01*
X67604605Y-44325000D01*
X67245395Y-44325000D01*
X67231252Y-44310858D01*
X67410858Y-44131252D01*
X67425000Y-44145395D01*
X69120416Y-42449978D01*
X69106732Y-42427000D01*
X130743268Y-42427000D01*
X130729584Y-42449978D01*
X130729584Y-42449978D01*
G37*
X130729584Y-42449978D02*
X132425000Y-44145395D01*
X132439142Y-44131252D01*
X132618748Y-44310858D01*
X132604605Y-44325000D01*
X134300022Y-46020416D01*
X134323000Y-46006732D01*
X134323000Y-56931705D01*
X134261034Y-56838966D01*
X131081034Y-53658966D01*
X130869510Y-53517631D01*
X130828113Y-53509396D01*
X130620000Y-53467999D01*
X130619995Y-53468000D01*
X119116701Y-53468000D01*
X119218773Y-53366106D01*
X119451735Y-52805072D01*
X119452265Y-52197593D01*
X119220283Y-51636154D01*
X118791106Y-51206227D01*
X118230072Y-50973265D01*
X117622593Y-50972735D01*
X117061154Y-51204717D01*
X116631227Y-51633894D01*
X116398265Y-52194928D01*
X116397735Y-52802407D01*
X116629717Y-53363846D01*
X116733689Y-53468000D01*
X115417816Y-53468000D01*
X115330283Y-53256154D01*
X114901106Y-52826227D01*
X114340072Y-52593265D01*
X113732593Y-52592735D01*
X113171154Y-52824717D01*
X112741227Y-53253894D01*
X112508265Y-53814928D01*
X112507735Y-54422407D01*
X112739717Y-54983846D01*
X113168894Y-55413773D01*
X113729928Y-55646735D01*
X114337407Y-55647265D01*
X114898846Y-55415283D01*
X115328773Y-54986106D01*
X115417678Y-54772000D01*
X130349932Y-54772000D01*
X133148000Y-57570068D01*
X133148000Y-70025933D01*
X130061034Y-66938966D01*
X130049007Y-66930930D01*
X129849510Y-66797631D01*
X129808113Y-66789396D01*
X129600000Y-66747999D01*
X129599995Y-66748000D01*
X109370067Y-66748000D01*
X106424475Y-63802407D01*
X116397735Y-63802407D01*
X116629717Y-64363846D01*
X117058894Y-64793773D01*
X117619928Y-65026735D01*
X118227407Y-65027265D01*
X118788846Y-64795283D01*
X119218773Y-64366106D01*
X119451735Y-63805072D01*
X119452265Y-63197593D01*
X119220283Y-62636154D01*
X118791106Y-62206227D01*
X118230072Y-61973265D01*
X117622593Y-61972735D01*
X117061154Y-62204717D01*
X116631227Y-62633894D01*
X116398265Y-63194928D01*
X116397735Y-63802407D01*
X106424475Y-63802407D01*
X104804475Y-62182407D01*
X112507735Y-62182407D01*
X112739717Y-62743846D01*
X113168894Y-63173773D01*
X113729928Y-63406735D01*
X114337407Y-63407265D01*
X114898846Y-63175283D01*
X115328773Y-62746106D01*
X115561735Y-62185072D01*
X115562265Y-61577593D01*
X115330283Y-61016154D01*
X114901106Y-60586227D01*
X114340072Y-60353265D01*
X113732593Y-60352735D01*
X113171154Y-60584717D01*
X112741227Y-61013894D01*
X112508265Y-61574928D01*
X112507735Y-62182407D01*
X104804475Y-62182407D01*
X103357000Y-60734932D01*
X103357000Y-59152532D01*
X111452073Y-59152532D01*
X111550736Y-59419387D01*
X112160461Y-59645908D01*
X112810460Y-59621856D01*
X113299264Y-59419387D01*
X113397927Y-59152532D01*
X112425000Y-58179605D01*
X111452073Y-59152532D01*
X103357000Y-59152532D01*
X103357000Y-57735461D01*
X110779092Y-57735461D01*
X110803144Y-58385460D01*
X111005613Y-58874264D01*
X111272468Y-58972927D01*
X112245395Y-58000000D01*
X112604605Y-58000000D01*
X113577532Y-58972927D01*
X113844387Y-58874264D01*
X114056839Y-58302407D01*
X120897735Y-58302407D01*
X121129717Y-58863846D01*
X121558894Y-59293773D01*
X122119928Y-59526735D01*
X122727407Y-59527265D01*
X123288846Y-59295283D01*
X123718773Y-58866106D01*
X123951735Y-58305072D01*
X123952265Y-57697593D01*
X123720283Y-57136154D01*
X123291106Y-56706227D01*
X122730072Y-56473265D01*
X122122593Y-56472735D01*
X121561154Y-56704717D01*
X121131227Y-57133894D01*
X120898265Y-57694928D01*
X120897735Y-58302407D01*
X114056839Y-58302407D01*
X114070908Y-58264539D01*
X114046856Y-57614540D01*
X113844387Y-57125736D01*
X113577532Y-57027073D01*
X112604605Y-58000000D01*
X112245395Y-58000000D01*
X111272468Y-57027073D01*
X111005613Y-57125736D01*
X110779092Y-57735461D01*
X103357000Y-57735461D01*
X103357000Y-56847468D01*
X111452073Y-56847468D01*
X112425000Y-57820395D01*
X113397927Y-56847468D01*
X113299264Y-56580613D01*
X112689539Y-56354092D01*
X112039540Y-56378144D01*
X111550736Y-56580613D01*
X111452073Y-56847468D01*
X103357000Y-56847468D01*
X103357000Y-50940607D01*
X103678686Y-50725663D01*
X103977182Y-50278932D01*
X104082000Y-49751977D01*
X104082000Y-49698023D01*
X103977182Y-49171068D01*
X103678686Y-48724337D01*
X103275595Y-48455000D01*
X103678686Y-48185663D01*
X103977182Y-47738932D01*
X104082000Y-47211977D01*
X104082000Y-47158023D01*
X103977182Y-46631068D01*
X103689167Y-46200022D01*
X130729584Y-46200022D01*
X130950353Y-46570743D01*
X131922012Y-46964119D01*
X132970247Y-46955713D01*
X133899647Y-46570743D01*
X134120416Y-46200022D01*
X132425000Y-44504605D01*
X130729584Y-46200022D01*
X103689167Y-46200022D01*
X103678686Y-46184337D01*
X103231955Y-45885841D01*
X102705000Y-45781023D01*
X102178045Y-45885841D01*
X101731314Y-46184337D01*
X101435000Y-46627802D01*
X101138686Y-46184337D01*
X100691955Y-45885841D01*
X100165000Y-45781023D01*
X99638045Y-45885841D01*
X99191314Y-46184337D01*
X98940463Y-46559762D01*
X98820183Y-46303642D01*
X98391924Y-45913355D01*
X97981890Y-45743524D01*
X97752000Y-45864845D01*
X97752000Y-47058000D01*
X97772000Y-47058000D01*
X97772000Y-47312000D01*
X97752000Y-47312000D01*
X97752000Y-47332000D01*
X97498000Y-47332000D01*
X97498000Y-47312000D01*
X97478000Y-47312000D01*
X97478000Y-47058000D01*
X97498000Y-47058000D01*
X97498000Y-45864845D01*
X97268110Y-45743524D01*
X96858076Y-45913355D01*
X96429817Y-46303642D01*
X96309537Y-46559762D01*
X96058686Y-46184337D01*
X95611955Y-45885841D01*
X95085000Y-45781023D01*
X94558045Y-45885841D01*
X94111314Y-46184337D01*
X93815000Y-46627802D01*
X93518686Y-46184337D01*
X93071955Y-45885841D01*
X92545000Y-45781023D01*
X92018045Y-45885841D01*
X91571314Y-46184337D01*
X91320463Y-46559762D01*
X91200183Y-46303642D01*
X90771924Y-45913355D01*
X90361890Y-45743524D01*
X90132000Y-45864845D01*
X90132000Y-47058000D01*
X90152000Y-47058000D01*
X90152000Y-47312000D01*
X90132000Y-47312000D01*
X90132000Y-47332000D01*
X89878000Y-47332000D01*
X89878000Y-47312000D01*
X89858000Y-47312000D01*
X89858000Y-47058000D01*
X89878000Y-47058000D01*
X89878000Y-45864845D01*
X89648110Y-45743524D01*
X89238076Y-45913355D01*
X88809817Y-46303642D01*
X88689537Y-46559762D01*
X88438686Y-46184337D01*
X87991955Y-45885841D01*
X87465000Y-45781023D01*
X86938045Y-45885841D01*
X86491314Y-46184337D01*
X86312324Y-46452215D01*
X86312324Y-46335000D01*
X86275577Y-46139706D01*
X86160158Y-45960340D01*
X85984049Y-45840010D01*
X85775000Y-45797676D01*
X84075000Y-45797676D01*
X83879706Y-45834423D01*
X83700340Y-45949842D01*
X83580010Y-46125951D01*
X83537676Y-46335000D01*
X83537676Y-46533000D01*
X82915005Y-46533000D01*
X82915000Y-46532999D01*
X82706887Y-46574396D01*
X82665490Y-46582631D01*
X82453966Y-46723966D01*
X79438966Y-49738966D01*
X79297631Y-49950490D01*
X79297631Y-49950491D01*
X79247999Y-50200000D01*
X79248000Y-50200005D01*
X79248000Y-53173727D01*
X78901106Y-52826227D01*
X78340072Y-52593265D01*
X77732593Y-52592735D01*
X77171154Y-52824717D01*
X76741227Y-53253894D01*
X76508265Y-53814928D01*
X76507735Y-54422407D01*
X76739717Y-54983846D01*
X77168894Y-55413773D01*
X77383000Y-55502678D01*
X77383000Y-56798282D01*
X77291106Y-56706227D01*
X76730072Y-56473265D01*
X76122593Y-56472735D01*
X75561154Y-56704717D01*
X75131227Y-57133894D01*
X74898265Y-57694928D01*
X74897735Y-58302407D01*
X75129717Y-58863846D01*
X75558894Y-59293773D01*
X76119928Y-59526735D01*
X76727407Y-59527265D01*
X77107872Y-59370060D01*
X74988966Y-61488966D01*
X74847631Y-61700490D01*
X74847631Y-61700491D01*
X74797999Y-61950000D01*
X74798000Y-61950005D01*
X74798000Y-63086755D01*
X74765222Y-63073144D01*
X74436221Y-63072857D01*
X74132154Y-63198495D01*
X73899312Y-63430930D01*
X73773144Y-63734778D01*
X73772857Y-64063779D01*
X73898495Y-64367846D01*
X73948000Y-64417438D01*
X73948000Y-97799995D01*
X73947999Y-97800000D01*
X73989396Y-98008113D01*
X73997631Y-98049510D01*
X74138966Y-98261034D01*
X98434245Y-122556312D01*
X98332154Y-122598495D01*
X98099312Y-122830930D01*
X97973144Y-123134778D01*
X97972857Y-123463779D01*
X98098495Y-123767846D01*
X98148000Y-123817438D01*
X98148000Y-128178555D01*
X97969070Y-127999312D01*
X97665222Y-127873144D01*
X97336221Y-127872857D01*
X97032154Y-127998495D01*
X96799312Y-128230930D01*
X96673144Y-128534778D01*
X96672857Y-128863779D01*
X96798495Y-129167846D01*
X96893000Y-129262516D01*
X96893000Y-130069393D01*
X96571314Y-130284337D01*
X96275000Y-130727802D01*
X95978686Y-130284337D01*
X95657000Y-130069393D01*
X95657000Y-129112682D01*
X95700688Y-129069070D01*
X95826856Y-128765222D01*
X95827143Y-128436221D01*
X95701505Y-128132154D01*
X95469070Y-127899312D01*
X95165222Y-127773144D01*
X94836221Y-127772857D01*
X94532154Y-127898495D01*
X94299312Y-128130930D01*
X94173144Y-128434778D01*
X94172857Y-128763779D01*
X94298495Y-129067846D01*
X94353000Y-129122446D01*
X94353000Y-130069393D01*
X94031314Y-130284337D01*
X93735000Y-130727802D01*
X93438686Y-130284337D01*
X92991955Y-129985841D01*
X92465000Y-129881023D01*
X91938045Y-129985841D01*
X91491314Y-130284337D01*
X91312324Y-130552215D01*
X91312324Y-130435000D01*
X91275577Y-130239706D01*
X91160158Y-130060340D01*
X90984049Y-129940010D01*
X90775000Y-129897676D01*
X89075000Y-129897676D01*
X88879706Y-129934423D01*
X88700340Y-130049842D01*
X88580010Y-130225951D01*
X88537676Y-130435000D01*
X88537676Y-132135000D01*
X88574423Y-132330294D01*
X88689842Y-132509660D01*
X88865951Y-132629990D01*
X89075000Y-132672324D01*
X89178818Y-132672324D01*
X88951314Y-132824337D01*
X88652818Y-133271068D01*
X88548000Y-133798023D01*
X88548000Y-133851977D01*
X88652818Y-134378932D01*
X88951314Y-134825663D01*
X89398045Y-135124159D01*
X89925000Y-135228977D01*
X90451955Y-135124159D01*
X90898686Y-134825663D01*
X91131655Y-134477000D01*
X91258345Y-134477000D01*
X91491314Y-134825663D01*
X91938045Y-135124159D01*
X92465000Y-135228977D01*
X92991955Y-135124159D01*
X93438686Y-134825663D01*
X93735000Y-134382198D01*
X94031314Y-134825663D01*
X94478045Y-135124159D01*
X95005000Y-135228977D01*
X95531955Y-135124159D01*
X95978686Y-134825663D01*
X96275000Y-134382198D01*
X96571314Y-134825663D01*
X97018045Y-135124159D01*
X97545000Y-135228977D01*
X98071955Y-135124159D01*
X98518686Y-134825663D01*
X98815000Y-134382198D01*
X99111314Y-134825663D01*
X99558045Y-135124159D01*
X100085000Y-135228977D01*
X100611955Y-135124159D01*
X101058686Y-134825663D01*
X101309537Y-134450238D01*
X101429817Y-134706358D01*
X101858076Y-135096645D01*
X102268110Y-135266476D01*
X102498000Y-135145155D01*
X102498000Y-133952000D01*
X102478000Y-133952000D01*
X102478000Y-133698000D01*
X102498000Y-133698000D01*
X102498000Y-133678000D01*
X102752000Y-133678000D01*
X102752000Y-133698000D01*
X102772000Y-133698000D01*
X102772000Y-133952000D01*
X102752000Y-133952000D01*
X102752000Y-135145155D01*
X102981890Y-135266476D01*
X103391924Y-135096645D01*
X103820183Y-134706358D01*
X103940463Y-134450238D01*
X104191314Y-134825663D01*
X104638045Y-135124159D01*
X105165000Y-135228977D01*
X105691955Y-135124159D01*
X106138686Y-134825663D01*
X106435000Y-134382198D01*
X106731314Y-134825663D01*
X107178045Y-135124159D01*
X107705000Y-135228977D01*
X108231955Y-135124159D01*
X108678686Y-134825663D01*
X108911655Y-134477000D01*
X111799995Y-134477000D01*
X111800000Y-134477001D01*
X112008113Y-134435604D01*
X112049510Y-134427369D01*
X112261034Y-134286034D01*
X114747068Y-131800000D01*
X122887676Y-131800000D01*
X122887676Y-132800000D01*
X122924423Y-132995294D01*
X123039842Y-133174660D01*
X123215951Y-133294990D01*
X123425000Y-133337324D01*
X126425000Y-133337324D01*
X126620294Y-133300577D01*
X126799660Y-133185158D01*
X126919990Y-133009049D01*
X126962324Y-132800000D01*
X126962324Y-131800000D01*
X126925577Y-131604706D01*
X126810158Y-131425340D01*
X126634049Y-131305010D01*
X126425000Y-131262676D01*
X123425000Y-131262676D01*
X123229706Y-131299423D01*
X123050340Y-131414842D01*
X122930010Y-131590951D01*
X122887676Y-131800000D01*
X114747068Y-131800000D01*
X118311034Y-128236034D01*
X118314444Y-128230930D01*
X118452369Y-128024510D01*
X118502000Y-127775000D01*
X118502000Y-124385750D01*
X122790000Y-124385750D01*
X122790000Y-124726310D01*
X122886673Y-124959699D01*
X123065302Y-125138327D01*
X123298691Y-125235000D01*
X124639250Y-125235000D01*
X124798000Y-125076250D01*
X124798000Y-124227000D01*
X125052000Y-124227000D01*
X125052000Y-125076250D01*
X125210750Y-125235000D01*
X126551309Y-125235000D01*
X126784698Y-125138327D01*
X126963327Y-124959699D01*
X127060000Y-124726310D01*
X127060000Y-124385750D01*
X126901250Y-124227000D01*
X125052000Y-124227000D01*
X124798000Y-124227000D01*
X122948750Y-124227000D01*
X122790000Y-124385750D01*
X118502000Y-124385750D01*
X118502000Y-123495068D01*
X118523377Y-123473690D01*
X122790000Y-123473690D01*
X122790000Y-123814250D01*
X122948750Y-123973000D01*
X124798000Y-123973000D01*
X124798000Y-123123750D01*
X125052000Y-123123750D01*
X125052000Y-123973000D01*
X126901250Y-123973000D01*
X127060000Y-123814250D01*
X127060000Y-123473690D01*
X126963327Y-123240301D01*
X126784698Y-123061673D01*
X126551309Y-122965000D01*
X125210750Y-122965000D01*
X125052000Y-123123750D01*
X124798000Y-123123750D01*
X124639250Y-122965000D01*
X123298691Y-122965000D01*
X123065302Y-123061673D01*
X122886673Y-123240301D01*
X122790000Y-123473690D01*
X118523377Y-123473690D01*
X119995067Y-122002000D01*
X130824995Y-122002000D01*
X130825000Y-122002001D01*
X131033113Y-121960604D01*
X131074510Y-121952369D01*
X131286034Y-121811034D01*
X131811034Y-121286034D01*
X131935009Y-121100491D01*
X131948000Y-121081049D01*
X131948000Y-125754933D01*
X130651699Y-127051233D01*
X130584049Y-127005010D01*
X130375000Y-126962676D01*
X128875000Y-126962676D01*
X128679706Y-126999423D01*
X128500340Y-127114842D01*
X128380010Y-127290951D01*
X128337676Y-127500000D01*
X128337676Y-128348000D01*
X121512324Y-128348000D01*
X121512324Y-127500000D01*
X121475577Y-127304706D01*
X121360158Y-127125340D01*
X121184049Y-127005010D01*
X120975000Y-126962676D01*
X119475000Y-126962676D01*
X119279706Y-126999423D01*
X119100340Y-127114842D01*
X118980010Y-127290951D01*
X118937676Y-127500000D01*
X118937676Y-130500000D01*
X118974423Y-130695294D01*
X119089842Y-130874660D01*
X119265951Y-130994990D01*
X119475000Y-131037324D01*
X120975000Y-131037324D01*
X121170294Y-131000577D01*
X121349660Y-130885158D01*
X121469990Y-130709049D01*
X121512324Y-130500000D01*
X121512324Y-129652000D01*
X128337676Y-129652000D01*
X128337676Y-130500000D01*
X128374423Y-130695294D01*
X128489842Y-130874660D01*
X128665951Y-130994990D01*
X128875000Y-131037324D01*
X130375000Y-131037324D01*
X130570294Y-131000577D01*
X130749660Y-130885158D01*
X130869990Y-130709049D01*
X130912324Y-130500000D01*
X130912324Y-128634744D01*
X132548000Y-126999067D01*
X132548000Y-140429933D01*
X130912324Y-142065608D01*
X130912324Y-141500000D01*
X130875577Y-141304706D01*
X130760158Y-141125340D01*
X130584049Y-141005010D01*
X130375000Y-140962676D01*
X128875000Y-140962676D01*
X128679706Y-140999423D01*
X128500340Y-141114842D01*
X128380010Y-141290951D01*
X128337676Y-141500000D01*
X128337676Y-142348000D01*
X121512324Y-142348000D01*
X121512324Y-141500000D01*
X121475577Y-141304706D01*
X121360158Y-141125340D01*
X121184049Y-141005010D01*
X120975000Y-140962676D01*
X119475000Y-140962676D01*
X119279706Y-140999423D01*
X119100340Y-141114842D01*
X118980010Y-141290951D01*
X118937676Y-141500000D01*
X118937676Y-144500000D01*
X118974423Y-144695294D01*
X119089842Y-144874660D01*
X119265951Y-144994990D01*
X119475000Y-145037324D01*
X120975000Y-145037324D01*
X121170294Y-145000577D01*
X121349660Y-144885158D01*
X121469990Y-144709049D01*
X121512324Y-144500000D01*
X121512324Y-143652000D01*
X128337676Y-143652000D01*
X128337676Y-144500000D01*
X128374423Y-144695294D01*
X128489842Y-144874660D01*
X128665951Y-144994990D01*
X128875000Y-145037324D01*
X130103562Y-145037324D01*
X129785881Y-145822012D01*
X129794287Y-146870247D01*
X130179257Y-147799647D01*
X130549978Y-148020416D01*
X132245395Y-146325000D01*
X132231252Y-146310858D01*
X132410858Y-146131252D01*
X132425000Y-146145395D01*
X134120416Y-144449978D01*
X133899647Y-144079257D01*
X132927988Y-143685881D01*
X131879753Y-143694287D01*
X130950353Y-144079257D01*
X130912324Y-144143116D01*
X130912324Y-143649550D01*
X131108113Y-143610604D01*
X131149510Y-143602369D01*
X131361034Y-143461034D01*
X133661031Y-141161036D01*
X133661034Y-141161034D01*
X133802369Y-140949510D01*
X133852000Y-140700000D01*
X133852000Y-132526958D01*
X134063779Y-132527143D01*
X134323000Y-132420035D01*
X134323000Y-144643268D01*
X134300022Y-144629584D01*
X132604605Y-146325000D01*
X132618748Y-146339142D01*
X132439142Y-146518748D01*
X132425000Y-146504605D01*
X130729584Y-148200022D01*
X130743268Y-148223000D01*
X69106732Y-148223000D01*
X69120416Y-148200022D01*
X67425000Y-146504605D01*
X67410858Y-146518748D01*
X67231252Y-146339142D01*
X67245395Y-146325000D01*
X67604605Y-146325000D01*
X69300022Y-148020416D01*
X69670743Y-147799647D01*
X70064119Y-146827988D01*
X70055876Y-145800000D01*
X122887676Y-145800000D01*
X122887676Y-146800000D01*
X122924423Y-146995294D01*
X123039842Y-147174660D01*
X123215951Y-147294990D01*
X123425000Y-147337324D01*
X126425000Y-147337324D01*
X126620294Y-147300577D01*
X126799660Y-147185158D01*
X126919990Y-147009049D01*
X126962324Y-146800000D01*
X126962324Y-145800000D01*
X126925577Y-145604706D01*
X126810158Y-145425340D01*
X126634049Y-145305010D01*
X126425000Y-145262676D01*
X123425000Y-145262676D01*
X123229706Y-145299423D01*
X123050340Y-145414842D01*
X122930010Y-145590951D01*
X122887676Y-145800000D01*
X70055876Y-145800000D01*
X70055713Y-145779753D01*
X69670743Y-144850353D01*
X69300022Y-144629584D01*
X67604605Y-146325000D01*
X67245395Y-146325000D01*
X65549978Y-144629584D01*
X65527000Y-144643268D01*
X65527000Y-144449978D01*
X65729584Y-144449978D01*
X67425000Y-146145395D01*
X69120416Y-144449978D01*
X68899647Y-144079257D01*
X67927988Y-143685881D01*
X66879753Y-143694287D01*
X65950353Y-144079257D01*
X65729584Y-144449978D01*
X65527000Y-144449978D01*
X65527000Y-138385750D01*
X122790000Y-138385750D01*
X122790000Y-138726310D01*
X122886673Y-138959699D01*
X123065302Y-139138327D01*
X123298691Y-139235000D01*
X124639250Y-139235000D01*
X124798000Y-139076250D01*
X124798000Y-138227000D01*
X125052000Y-138227000D01*
X125052000Y-139076250D01*
X125210750Y-139235000D01*
X126551309Y-139235000D01*
X126784698Y-139138327D01*
X126963327Y-138959699D01*
X127060000Y-138726310D01*
X127060000Y-138385750D01*
X126901250Y-138227000D01*
X125052000Y-138227000D01*
X124798000Y-138227000D01*
X122948750Y-138227000D01*
X122790000Y-138385750D01*
X65527000Y-138385750D01*
X65527000Y-137473690D01*
X122790000Y-137473690D01*
X122790000Y-137814250D01*
X122948750Y-137973000D01*
X124798000Y-137973000D01*
X124798000Y-137123750D01*
X125052000Y-137123750D01*
X125052000Y-137973000D01*
X126901250Y-137973000D01*
X127060000Y-137814250D01*
X127060000Y-137473690D01*
X126963327Y-137240301D01*
X126784698Y-137061673D01*
X126551309Y-136965000D01*
X125210750Y-136965000D01*
X125052000Y-137123750D01*
X124798000Y-137123750D01*
X124639250Y-136965000D01*
X123298691Y-136965000D01*
X123065302Y-137061673D01*
X122886673Y-137240301D01*
X122790000Y-137473690D01*
X65527000Y-137473690D01*
X65527000Y-46200022D01*
X65729584Y-46200022D01*
X65950353Y-46570743D01*
X66922012Y-46964119D01*
X67970247Y-46955713D01*
X68899647Y-46570743D01*
X69120416Y-46200022D01*
X67425000Y-44504605D01*
X65729584Y-46200022D01*
X65527000Y-46200022D01*
X65527000Y-46006732D01*
X65549978Y-46020416D01*
X67245395Y-44325000D01*
X67604605Y-44325000D01*
X69300022Y-46020416D01*
X69670743Y-45799647D01*
X70064119Y-44827988D01*
X70056052Y-43822012D01*
X129785881Y-43822012D01*
X129794287Y-44870247D01*
X130179257Y-45799647D01*
X130549978Y-46020416D01*
X132245395Y-44325000D01*
X130549978Y-42629584D01*
X130179257Y-42850353D01*
X129785881Y-43822012D01*
X70056052Y-43822012D01*
X70055713Y-43779753D01*
X69670743Y-42850353D01*
X69300022Y-42629584D01*
X67604605Y-44325000D01*
X67245395Y-44325000D01*
X67231252Y-44310858D01*
X67410858Y-44131252D01*
X67425000Y-44145395D01*
X69120416Y-42449978D01*
X69106732Y-42427000D01*
X130743268Y-42427000D01*
X130729584Y-42449978D01*
G36*
X76507735Y-62182407D02*
X76739717Y-62743846D01*
X77168894Y-63173773D01*
X77729928Y-63406735D01*
X78337407Y-63407265D01*
X78898846Y-63175283D01*
X79248000Y-62826738D01*
X79248000Y-77299995D01*
X79247999Y-77300000D01*
X79287783Y-77500000D01*
X79297631Y-77549510D01*
X79431265Y-77749509D01*
X79438966Y-77761034D01*
X79638964Y-77961031D01*
X79638966Y-77961034D01*
X79780302Y-78055471D01*
X79850491Y-78102370D01*
X79887676Y-78109767D01*
X79887676Y-78250000D01*
X79924423Y-78445294D01*
X80039842Y-78624660D01*
X80215951Y-78744990D01*
X80425000Y-78787324D01*
X83425000Y-78787324D01*
X83620294Y-78750577D01*
X83799660Y-78635158D01*
X83919990Y-78459049D01*
X83962324Y-78250000D01*
X83962324Y-78152000D01*
X115887676Y-78152000D01*
X115887676Y-78250000D01*
X115924423Y-78445294D01*
X116039842Y-78624660D01*
X116215951Y-78744990D01*
X116425000Y-78787324D01*
X119425000Y-78787324D01*
X119620294Y-78750577D01*
X119799660Y-78635158D01*
X119919990Y-78459049D01*
X119962324Y-78250000D01*
X119962324Y-76750000D01*
X119925577Y-76554706D01*
X119810158Y-76375340D01*
X119634049Y-76255010D01*
X119425000Y-76212676D01*
X116425000Y-76212676D01*
X116229706Y-76249423D01*
X116050340Y-76364842D01*
X115930010Y-76540951D01*
X115887676Y-76750000D01*
X115887676Y-76848000D01*
X83962324Y-76848000D01*
X83962324Y-76750000D01*
X83925577Y-76554706D01*
X83810158Y-76375340D01*
X83634049Y-76255010D01*
X83425000Y-76212676D01*
X80552000Y-76212676D01*
X80552000Y-70987324D01*
X83425000Y-70987324D01*
X83620294Y-70950577D01*
X83799660Y-70835158D01*
X83919990Y-70659049D01*
X83962324Y-70450000D01*
X83962324Y-70352000D01*
X85174951Y-70352000D01*
X85080010Y-70490951D01*
X85037676Y-70700000D01*
X85037676Y-73700000D01*
X85074423Y-73895294D01*
X85189842Y-74074660D01*
X85365951Y-74194990D01*
X85575000Y-74237324D01*
X87075000Y-74237324D01*
X87270294Y-74200577D01*
X87449660Y-74085158D01*
X87569990Y-73909049D01*
X87612324Y-73700000D01*
X87612324Y-70700000D01*
X87575577Y-70504706D01*
X87477313Y-70352000D01*
X115887676Y-70352000D01*
X115887676Y-70450000D01*
X115924423Y-70645294D01*
X116039842Y-70824660D01*
X116215951Y-70944990D01*
X116425000Y-70987324D01*
X119425000Y-70987324D01*
X119620294Y-70950577D01*
X119799660Y-70835158D01*
X119892009Y-70700000D01*
X121037676Y-70700000D01*
X121037676Y-73700000D01*
X121074423Y-73895294D01*
X121189842Y-74074660D01*
X121365951Y-74194990D01*
X121575000Y-74237324D01*
X123075000Y-74237324D01*
X123270294Y-74200577D01*
X123449660Y-74085158D01*
X123569990Y-73909049D01*
X123612324Y-73700000D01*
X123612324Y-70700000D01*
X123575577Y-70504706D01*
X123460158Y-70325340D01*
X123284049Y-70205010D01*
X123075000Y-70162676D01*
X121575000Y-70162676D01*
X121379706Y-70199423D01*
X121200340Y-70314842D01*
X121080010Y-70490951D01*
X121037676Y-70700000D01*
X119892009Y-70700000D01*
X119919990Y-70659049D01*
X119962324Y-70450000D01*
X119962324Y-68950000D01*
X119925577Y-68754706D01*
X119810158Y-68575340D01*
X119775999Y-68552000D01*
X128979930Y-68552000D01*
X131948000Y-71520069D01*
X131948000Y-102468951D01*
X131811034Y-102263966D01*
X131811031Y-102263964D01*
X130912324Y-101365256D01*
X130912324Y-99500000D01*
X130875577Y-99304706D01*
X130760158Y-99125340D01*
X130584049Y-99005010D01*
X130375000Y-98962676D01*
X128875000Y-98962676D01*
X128679706Y-98999423D01*
X128500340Y-99114842D01*
X128380010Y-99290951D01*
X128337676Y-99500000D01*
X128337676Y-100348000D01*
X121512324Y-100348000D01*
X121512324Y-99500000D01*
X121475577Y-99304706D01*
X121360158Y-99125340D01*
X121184049Y-99005010D01*
X120975000Y-98962676D01*
X119475000Y-98962676D01*
X119279706Y-98999423D01*
X119100340Y-99114842D01*
X118980010Y-99290951D01*
X118937676Y-99500000D01*
X118937676Y-102500000D01*
X118974423Y-102695294D01*
X119089842Y-102874660D01*
X119265951Y-102994990D01*
X119475000Y-103037324D01*
X120975000Y-103037324D01*
X121170294Y-103000577D01*
X121349660Y-102885158D01*
X121469990Y-102709049D01*
X121512324Y-102500000D01*
X121512324Y-101652000D01*
X128337676Y-101652000D01*
X128337676Y-102500000D01*
X128374423Y-102695294D01*
X128489842Y-102874660D01*
X128665951Y-102994990D01*
X128875000Y-103037324D01*
X130375000Y-103037324D01*
X130570294Y-103000577D01*
X130651351Y-102948418D01*
X130698000Y-102995067D01*
X130698000Y-113082869D01*
X130584049Y-113005010D01*
X130375000Y-112962676D01*
X128875000Y-112962676D01*
X128679706Y-112999423D01*
X128500340Y-113114842D01*
X128380010Y-113290951D01*
X128337676Y-113500000D01*
X128337676Y-114348000D01*
X121512324Y-114348000D01*
X121512324Y-113500000D01*
X121475577Y-113304706D01*
X121360158Y-113125340D01*
X121184049Y-113005010D01*
X120975000Y-112962676D01*
X119475000Y-112962676D01*
X119279706Y-112999423D01*
X119100340Y-113114842D01*
X118980010Y-113290951D01*
X118937676Y-113500000D01*
X118937676Y-114348000D01*
X112275005Y-114348000D01*
X112275000Y-114347999D01*
X112066887Y-114389396D01*
X112025490Y-114397631D01*
X111813966Y-114538966D01*
X107243966Y-119108966D01*
X107102631Y-119320490D01*
X107094396Y-119361887D01*
X107052999Y-119570000D01*
X107053000Y-119570005D01*
X107053000Y-130069393D01*
X107052000Y-130070062D01*
X107052000Y-110385750D01*
X122790000Y-110385750D01*
X122790000Y-110726310D01*
X122886673Y-110959699D01*
X123065302Y-111138327D01*
X123298691Y-111235000D01*
X124639250Y-111235000D01*
X124798000Y-111076250D01*
X124798000Y-110227000D01*
X125052000Y-110227000D01*
X125052000Y-111076250D01*
X125210750Y-111235000D01*
X126551309Y-111235000D01*
X126784698Y-111138327D01*
X126963327Y-110959699D01*
X127060000Y-110726310D01*
X127060000Y-110385750D01*
X126901250Y-110227000D01*
X125052000Y-110227000D01*
X124798000Y-110227000D01*
X122948750Y-110227000D01*
X122790000Y-110385750D01*
X107052000Y-110385750D01*
X107052000Y-109473690D01*
X122790000Y-109473690D01*
X122790000Y-109814250D01*
X122948750Y-109973000D01*
X124798000Y-109973000D01*
X124798000Y-109123750D01*
X125052000Y-109123750D01*
X125052000Y-109973000D01*
X126901250Y-109973000D01*
X127060000Y-109814250D01*
X127060000Y-109473690D01*
X126963327Y-109240301D01*
X126784698Y-109061673D01*
X126551309Y-108965000D01*
X125210750Y-108965000D01*
X125052000Y-109123750D01*
X124798000Y-109123750D01*
X124639250Y-108965000D01*
X123298691Y-108965000D01*
X123065302Y-109061673D01*
X122886673Y-109240301D01*
X122790000Y-109473690D01*
X107052000Y-109473690D01*
X107052000Y-107145496D01*
X107126856Y-106965222D01*
X107127143Y-106636221D01*
X107001505Y-106332154D01*
X106769070Y-106099312D01*
X106471371Y-105975697D01*
X108647067Y-103800000D01*
X122887676Y-103800000D01*
X122887676Y-104800000D01*
X122924423Y-104995294D01*
X123039842Y-105174660D01*
X123215951Y-105294990D01*
X123425000Y-105337324D01*
X126425000Y-105337324D01*
X126620294Y-105300577D01*
X126799660Y-105185158D01*
X126919990Y-105009049D01*
X126962324Y-104800000D01*
X126962324Y-103800000D01*
X126925577Y-103604706D01*
X126810158Y-103425340D01*
X126634049Y-103305010D01*
X126425000Y-103262676D01*
X123425000Y-103262676D01*
X123229706Y-103299423D01*
X123050340Y-103414842D01*
X122930010Y-103590951D01*
X122887676Y-103800000D01*
X108647067Y-103800000D01*
X116061317Y-96385750D01*
X122790000Y-96385750D01*
X122790000Y-96726310D01*
X122886673Y-96959699D01*
X123065302Y-97138327D01*
X123298691Y-97235000D01*
X124639250Y-97235000D01*
X124798000Y-97076250D01*
X124798000Y-96227000D01*
X125052000Y-96227000D01*
X125052000Y-97076250D01*
X125210750Y-97235000D01*
X126551309Y-97235000D01*
X126784698Y-97138327D01*
X126963327Y-96959699D01*
X127060000Y-96726310D01*
X127060000Y-96385750D01*
X126901250Y-96227000D01*
X125052000Y-96227000D01*
X124798000Y-96227000D01*
X122948750Y-96227000D01*
X122790000Y-96385750D01*
X116061317Y-96385750D01*
X116973377Y-95473690D01*
X122790000Y-95473690D01*
X122790000Y-95814250D01*
X122948750Y-95973000D01*
X124798000Y-95973000D01*
X124798000Y-95123750D01*
X125052000Y-95123750D01*
X125052000Y-95973000D01*
X126901250Y-95973000D01*
X127060000Y-95814250D01*
X127060000Y-95473690D01*
X126963327Y-95240301D01*
X126784698Y-95061673D01*
X126551309Y-94965000D01*
X125210750Y-94965000D01*
X125052000Y-95123750D01*
X124798000Y-95123750D01*
X124639250Y-94965000D01*
X123298691Y-94965000D01*
X123065302Y-95061673D01*
X122886673Y-95240301D01*
X122790000Y-95473690D01*
X116973377Y-95473690D01*
X120686031Y-91761036D01*
X120686034Y-91761034D01*
X120827369Y-91549510D01*
X120877000Y-91300000D01*
X120877000Y-89800000D01*
X122887676Y-89800000D01*
X122887676Y-90800000D01*
X122924423Y-90995294D01*
X123039842Y-91174660D01*
X123215951Y-91294990D01*
X123425000Y-91337324D01*
X126425000Y-91337324D01*
X126620294Y-91300577D01*
X126799660Y-91185158D01*
X126919990Y-91009049D01*
X126962324Y-90800000D01*
X126962324Y-89800000D01*
X126925577Y-89604706D01*
X126810158Y-89425340D01*
X126634049Y-89305010D01*
X126425000Y-89262676D01*
X123425000Y-89262676D01*
X123229706Y-89299423D01*
X123050340Y-89414842D01*
X122930010Y-89590951D01*
X122887676Y-89800000D01*
X120877000Y-89800000D01*
X120877000Y-89037324D01*
X120975000Y-89037324D01*
X121170294Y-89000577D01*
X121349660Y-88885158D01*
X121469990Y-88709049D01*
X121512324Y-88500000D01*
X121512324Y-87652000D01*
X128337676Y-87652000D01*
X128337676Y-88500000D01*
X128374423Y-88695294D01*
X128489842Y-88874660D01*
X128665951Y-88994990D01*
X128875000Y-89037324D01*
X130375000Y-89037324D01*
X130570294Y-89000577D01*
X130749660Y-88885158D01*
X130869990Y-88709049D01*
X130912324Y-88500000D01*
X130912324Y-85500000D01*
X130875577Y-85304706D01*
X130760158Y-85125340D01*
X130584049Y-85005010D01*
X130375000Y-84962676D01*
X128875000Y-84962676D01*
X128679706Y-84999423D01*
X128500340Y-85114842D01*
X128380010Y-85290951D01*
X128337676Y-85500000D01*
X128337676Y-86348000D01*
X121512324Y-86348000D01*
X121512324Y-85500000D01*
X121475577Y-85304706D01*
X121360158Y-85125340D01*
X121184049Y-85005010D01*
X120975000Y-84962676D01*
X119475000Y-84962676D01*
X119279706Y-84999423D01*
X119100340Y-85114842D01*
X118980010Y-85290951D01*
X118937676Y-85500000D01*
X118937676Y-88500000D01*
X118974423Y-88695294D01*
X119089842Y-88874660D01*
X119265951Y-88994990D01*
X119475000Y-89037324D01*
X119573000Y-89037324D01*
X119573000Y-91029933D01*
X104703966Y-105898966D01*
X104652000Y-105976739D01*
X104652000Y-105570068D01*
X106686031Y-103536036D01*
X106686034Y-103536034D01*
X106827369Y-103324510D01*
X106877000Y-103075000D01*
X106877000Y-89800000D01*
X108887676Y-89800000D01*
X108887676Y-90800000D01*
X108924423Y-90995294D01*
X109039842Y-91174660D01*
X109215951Y-91294990D01*
X109425000Y-91337324D01*
X112425000Y-91337324D01*
X112620294Y-91300577D01*
X112799660Y-91185158D01*
X112919990Y-91009049D01*
X112962324Y-90800000D01*
X112962324Y-89800000D01*
X112925577Y-89604706D01*
X112810158Y-89425340D01*
X112634049Y-89305010D01*
X112425000Y-89262676D01*
X109425000Y-89262676D01*
X109229706Y-89299423D01*
X109050340Y-89414842D01*
X108930010Y-89590951D01*
X108887676Y-89800000D01*
X106877000Y-89800000D01*
X106877000Y-89037324D01*
X106975000Y-89037324D01*
X107170294Y-89000577D01*
X107349660Y-88885158D01*
X107469990Y-88709049D01*
X107512324Y-88500000D01*
X107512324Y-87652000D01*
X114337676Y-87652000D01*
X114337676Y-88500000D01*
X114374423Y-88695294D01*
X114489842Y-88874660D01*
X114665951Y-88994990D01*
X114875000Y-89037324D01*
X116375000Y-89037324D01*
X116570294Y-89000577D01*
X116749660Y-88885158D01*
X116869990Y-88709049D01*
X116912324Y-88500000D01*
X116912324Y-85500000D01*
X116875577Y-85304706D01*
X116760158Y-85125340D01*
X116584049Y-85005010D01*
X116375000Y-84962676D01*
X114875000Y-84962676D01*
X114679706Y-84999423D01*
X114500340Y-85114842D01*
X114380010Y-85290951D01*
X114337676Y-85500000D01*
X114337676Y-86348000D01*
X107512324Y-86348000D01*
X107512324Y-85500000D01*
X107475577Y-85304706D01*
X107360158Y-85125340D01*
X107184049Y-85005010D01*
X106975000Y-84962676D01*
X105475000Y-84962676D01*
X105279706Y-84999423D01*
X105100340Y-85114842D01*
X104980010Y-85290951D01*
X104937676Y-85500000D01*
X104937676Y-86348000D01*
X87912324Y-86348000D01*
X87912324Y-85500000D01*
X87875577Y-85304706D01*
X87760158Y-85125340D01*
X87584049Y-85005010D01*
X87375000Y-84962676D01*
X85875000Y-84962676D01*
X85679706Y-84999423D01*
X85500340Y-85114842D01*
X85380010Y-85290951D01*
X85337676Y-85500000D01*
X85337676Y-86348000D01*
X78512324Y-86348000D01*
X78512324Y-85500000D01*
X78475577Y-85304706D01*
X78360158Y-85125340D01*
X78184049Y-85005010D01*
X77975000Y-84962676D01*
X76475000Y-84962676D01*
X76279706Y-84999423D01*
X76102000Y-85113774D01*
X76102000Y-82385750D01*
X79790000Y-82385750D01*
X79790000Y-82726310D01*
X79886673Y-82959699D01*
X80065302Y-83138327D01*
X80298691Y-83235000D01*
X81639250Y-83235000D01*
X81798000Y-83076250D01*
X81798000Y-82227000D01*
X82052000Y-82227000D01*
X82052000Y-83076250D01*
X82210750Y-83235000D01*
X83551309Y-83235000D01*
X83784698Y-83138327D01*
X83963327Y-82959699D01*
X84060000Y-82726310D01*
X84060000Y-82385750D01*
X108790000Y-82385750D01*
X108790000Y-82726310D01*
X108886673Y-82959699D01*
X109065302Y-83138327D01*
X109298691Y-83235000D01*
X110639250Y-83235000D01*
X110798000Y-83076250D01*
X110798000Y-82227000D01*
X111052000Y-82227000D01*
X111052000Y-83076250D01*
X111210750Y-83235000D01*
X112551309Y-83235000D01*
X112784698Y-83138327D01*
X112963327Y-82959699D01*
X113060000Y-82726310D01*
X113060000Y-82385750D01*
X122790000Y-82385750D01*
X122790000Y-82726310D01*
X122886673Y-82959699D01*
X123065302Y-83138327D01*
X123298691Y-83235000D01*
X124639250Y-83235000D01*
X124798000Y-83076250D01*
X124798000Y-82227000D01*
X125052000Y-82227000D01*
X125052000Y-83076250D01*
X125210750Y-83235000D01*
X126551309Y-83235000D01*
X126784698Y-83138327D01*
X126963327Y-82959699D01*
X127060000Y-82726310D01*
X127060000Y-82385750D01*
X126901250Y-82227000D01*
X125052000Y-82227000D01*
X124798000Y-82227000D01*
X122948750Y-82227000D01*
X122790000Y-82385750D01*
X113060000Y-82385750D01*
X112901250Y-82227000D01*
X111052000Y-82227000D01*
X110798000Y-82227000D01*
X108948750Y-82227000D01*
X108790000Y-82385750D01*
X84060000Y-82385750D01*
X83901250Y-82227000D01*
X82052000Y-82227000D01*
X81798000Y-82227000D01*
X79948750Y-82227000D01*
X79790000Y-82385750D01*
X76102000Y-82385750D01*
X76102000Y-81473690D01*
X79790000Y-81473690D01*
X79790000Y-81814250D01*
X79948750Y-81973000D01*
X81798000Y-81973000D01*
X81798000Y-81123750D01*
X82052000Y-81123750D01*
X82052000Y-81973000D01*
X83901250Y-81973000D01*
X84060000Y-81814250D01*
X84060000Y-81473690D01*
X108790000Y-81473690D01*
X108790000Y-81814250D01*
X108948750Y-81973000D01*
X110798000Y-81973000D01*
X110798000Y-81123750D01*
X111052000Y-81123750D01*
X111052000Y-81973000D01*
X112901250Y-81973000D01*
X113060000Y-81814250D01*
X113060000Y-81473690D01*
X122790000Y-81473690D01*
X122790000Y-81814250D01*
X122948750Y-81973000D01*
X124798000Y-81973000D01*
X124798000Y-81123750D01*
X125052000Y-81123750D01*
X125052000Y-81973000D01*
X126901250Y-81973000D01*
X127060000Y-81814250D01*
X127060000Y-81473690D01*
X126963327Y-81240301D01*
X126784698Y-81061673D01*
X126551309Y-80965000D01*
X125210750Y-80965000D01*
X125052000Y-81123750D01*
X124798000Y-81123750D01*
X124639250Y-80965000D01*
X123298691Y-80965000D01*
X123065302Y-81061673D01*
X122886673Y-81240301D01*
X122790000Y-81473690D01*
X113060000Y-81473690D01*
X112963327Y-81240301D01*
X112784698Y-81061673D01*
X112551309Y-80965000D01*
X111210750Y-80965000D01*
X111052000Y-81123750D01*
X110798000Y-81123750D01*
X110639250Y-80965000D01*
X109298691Y-80965000D01*
X109065302Y-81061673D01*
X108886673Y-81240301D01*
X108790000Y-81473690D01*
X84060000Y-81473690D01*
X83963327Y-81240301D01*
X83784698Y-81061673D01*
X83551309Y-80965000D01*
X82210750Y-80965000D01*
X82052000Y-81123750D01*
X81798000Y-81123750D01*
X81639250Y-80965000D01*
X80298691Y-80965000D01*
X80065302Y-81061673D01*
X79886673Y-81240301D01*
X79790000Y-81473690D01*
X76102000Y-81473690D01*
X76102000Y-62220068D01*
X76508056Y-61814012D01*
X76507735Y-62182407D01*
X76507735Y-62182407D01*
G37*
X76507735Y-62182407D02*
X76739717Y-62743846D01*
X77168894Y-63173773D01*
X77729928Y-63406735D01*
X78337407Y-63407265D01*
X78898846Y-63175283D01*
X79248000Y-62826738D01*
X79248000Y-77299995D01*
X79247999Y-77300000D01*
X79287783Y-77500000D01*
X79297631Y-77549510D01*
X79431265Y-77749509D01*
X79438966Y-77761034D01*
X79638964Y-77961031D01*
X79638966Y-77961034D01*
X79780302Y-78055471D01*
X79850491Y-78102370D01*
X79887676Y-78109767D01*
X79887676Y-78250000D01*
X79924423Y-78445294D01*
X80039842Y-78624660D01*
X80215951Y-78744990D01*
X80425000Y-78787324D01*
X83425000Y-78787324D01*
X83620294Y-78750577D01*
X83799660Y-78635158D01*
X83919990Y-78459049D01*
X83962324Y-78250000D01*
X83962324Y-78152000D01*
X115887676Y-78152000D01*
X115887676Y-78250000D01*
X115924423Y-78445294D01*
X116039842Y-78624660D01*
X116215951Y-78744990D01*
X116425000Y-78787324D01*
X119425000Y-78787324D01*
X119620294Y-78750577D01*
X119799660Y-78635158D01*
X119919990Y-78459049D01*
X119962324Y-78250000D01*
X119962324Y-76750000D01*
X119925577Y-76554706D01*
X119810158Y-76375340D01*
X119634049Y-76255010D01*
X119425000Y-76212676D01*
X116425000Y-76212676D01*
X116229706Y-76249423D01*
X116050340Y-76364842D01*
X115930010Y-76540951D01*
X115887676Y-76750000D01*
X115887676Y-76848000D01*
X83962324Y-76848000D01*
X83962324Y-76750000D01*
X83925577Y-76554706D01*
X83810158Y-76375340D01*
X83634049Y-76255010D01*
X83425000Y-76212676D01*
X80552000Y-76212676D01*
X80552000Y-70987324D01*
X83425000Y-70987324D01*
X83620294Y-70950577D01*
X83799660Y-70835158D01*
X83919990Y-70659049D01*
X83962324Y-70450000D01*
X83962324Y-70352000D01*
X85174951Y-70352000D01*
X85080010Y-70490951D01*
X85037676Y-70700000D01*
X85037676Y-73700000D01*
X85074423Y-73895294D01*
X85189842Y-74074660D01*
X85365951Y-74194990D01*
X85575000Y-74237324D01*
X87075000Y-74237324D01*
X87270294Y-74200577D01*
X87449660Y-74085158D01*
X87569990Y-73909049D01*
X87612324Y-73700000D01*
X87612324Y-70700000D01*
X87575577Y-70504706D01*
X87477313Y-70352000D01*
X115887676Y-70352000D01*
X115887676Y-70450000D01*
X115924423Y-70645294D01*
X116039842Y-70824660D01*
X116215951Y-70944990D01*
X116425000Y-70987324D01*
X119425000Y-70987324D01*
X119620294Y-70950577D01*
X119799660Y-70835158D01*
X119892009Y-70700000D01*
X121037676Y-70700000D01*
X121037676Y-73700000D01*
X121074423Y-73895294D01*
X121189842Y-74074660D01*
X121365951Y-74194990D01*
X121575000Y-74237324D01*
X123075000Y-74237324D01*
X123270294Y-74200577D01*
X123449660Y-74085158D01*
X123569990Y-73909049D01*
X123612324Y-73700000D01*
X123612324Y-70700000D01*
X123575577Y-70504706D01*
X123460158Y-70325340D01*
X123284049Y-70205010D01*
X123075000Y-70162676D01*
X121575000Y-70162676D01*
X121379706Y-70199423D01*
X121200340Y-70314842D01*
X121080010Y-70490951D01*
X121037676Y-70700000D01*
X119892009Y-70700000D01*
X119919990Y-70659049D01*
X119962324Y-70450000D01*
X119962324Y-68950000D01*
X119925577Y-68754706D01*
X119810158Y-68575340D01*
X119775999Y-68552000D01*
X128979930Y-68552000D01*
X131948000Y-71520069D01*
X131948000Y-102468951D01*
X131811034Y-102263966D01*
X131811031Y-102263964D01*
X130912324Y-101365256D01*
X130912324Y-99500000D01*
X130875577Y-99304706D01*
X130760158Y-99125340D01*
X130584049Y-99005010D01*
X130375000Y-98962676D01*
X128875000Y-98962676D01*
X128679706Y-98999423D01*
X128500340Y-99114842D01*
X128380010Y-99290951D01*
X128337676Y-99500000D01*
X128337676Y-100348000D01*
X121512324Y-100348000D01*
X121512324Y-99500000D01*
X121475577Y-99304706D01*
X121360158Y-99125340D01*
X121184049Y-99005010D01*
X120975000Y-98962676D01*
X119475000Y-98962676D01*
X119279706Y-98999423D01*
X119100340Y-99114842D01*
X118980010Y-99290951D01*
X118937676Y-99500000D01*
X118937676Y-102500000D01*
X118974423Y-102695294D01*
X119089842Y-102874660D01*
X119265951Y-102994990D01*
X119475000Y-103037324D01*
X120975000Y-103037324D01*
X121170294Y-103000577D01*
X121349660Y-102885158D01*
X121469990Y-102709049D01*
X121512324Y-102500000D01*
X121512324Y-101652000D01*
X128337676Y-101652000D01*
X128337676Y-102500000D01*
X128374423Y-102695294D01*
X128489842Y-102874660D01*
X128665951Y-102994990D01*
X128875000Y-103037324D01*
X130375000Y-103037324D01*
X130570294Y-103000577D01*
X130651351Y-102948418D01*
X130698000Y-102995067D01*
X130698000Y-113082869D01*
X130584049Y-113005010D01*
X130375000Y-112962676D01*
X128875000Y-112962676D01*
X128679706Y-112999423D01*
X128500340Y-113114842D01*
X128380010Y-113290951D01*
X128337676Y-113500000D01*
X128337676Y-114348000D01*
X121512324Y-114348000D01*
X121512324Y-113500000D01*
X121475577Y-113304706D01*
X121360158Y-113125340D01*
X121184049Y-113005010D01*
X120975000Y-112962676D01*
X119475000Y-112962676D01*
X119279706Y-112999423D01*
X119100340Y-113114842D01*
X118980010Y-113290951D01*
X118937676Y-113500000D01*
X118937676Y-114348000D01*
X112275005Y-114348000D01*
X112275000Y-114347999D01*
X112066887Y-114389396D01*
X112025490Y-114397631D01*
X111813966Y-114538966D01*
X107243966Y-119108966D01*
X107102631Y-119320490D01*
X107094396Y-119361887D01*
X107052999Y-119570000D01*
X107053000Y-119570005D01*
X107053000Y-130069393D01*
X107052000Y-130070062D01*
X107052000Y-110385750D01*
X122790000Y-110385750D01*
X122790000Y-110726310D01*
X122886673Y-110959699D01*
X123065302Y-111138327D01*
X123298691Y-111235000D01*
X124639250Y-111235000D01*
X124798000Y-111076250D01*
X124798000Y-110227000D01*
X125052000Y-110227000D01*
X125052000Y-111076250D01*
X125210750Y-111235000D01*
X126551309Y-111235000D01*
X126784698Y-111138327D01*
X126963327Y-110959699D01*
X127060000Y-110726310D01*
X127060000Y-110385750D01*
X126901250Y-110227000D01*
X125052000Y-110227000D01*
X124798000Y-110227000D01*
X122948750Y-110227000D01*
X122790000Y-110385750D01*
X107052000Y-110385750D01*
X107052000Y-109473690D01*
X122790000Y-109473690D01*
X122790000Y-109814250D01*
X122948750Y-109973000D01*
X124798000Y-109973000D01*
X124798000Y-109123750D01*
X125052000Y-109123750D01*
X125052000Y-109973000D01*
X126901250Y-109973000D01*
X127060000Y-109814250D01*
X127060000Y-109473690D01*
X126963327Y-109240301D01*
X126784698Y-109061673D01*
X126551309Y-108965000D01*
X125210750Y-108965000D01*
X125052000Y-109123750D01*
X124798000Y-109123750D01*
X124639250Y-108965000D01*
X123298691Y-108965000D01*
X123065302Y-109061673D01*
X122886673Y-109240301D01*
X122790000Y-109473690D01*
X107052000Y-109473690D01*
X107052000Y-107145496D01*
X107126856Y-106965222D01*
X107127143Y-106636221D01*
X107001505Y-106332154D01*
X106769070Y-106099312D01*
X106471371Y-105975697D01*
X108647067Y-103800000D01*
X122887676Y-103800000D01*
X122887676Y-104800000D01*
X122924423Y-104995294D01*
X123039842Y-105174660D01*
X123215951Y-105294990D01*
X123425000Y-105337324D01*
X126425000Y-105337324D01*
X126620294Y-105300577D01*
X126799660Y-105185158D01*
X126919990Y-105009049D01*
X126962324Y-104800000D01*
X126962324Y-103800000D01*
X126925577Y-103604706D01*
X126810158Y-103425340D01*
X126634049Y-103305010D01*
X126425000Y-103262676D01*
X123425000Y-103262676D01*
X123229706Y-103299423D01*
X123050340Y-103414842D01*
X122930010Y-103590951D01*
X122887676Y-103800000D01*
X108647067Y-103800000D01*
X116061317Y-96385750D01*
X122790000Y-96385750D01*
X122790000Y-96726310D01*
X122886673Y-96959699D01*
X123065302Y-97138327D01*
X123298691Y-97235000D01*
X124639250Y-97235000D01*
X124798000Y-97076250D01*
X124798000Y-96227000D01*
X125052000Y-96227000D01*
X125052000Y-97076250D01*
X125210750Y-97235000D01*
X126551309Y-97235000D01*
X126784698Y-97138327D01*
X126963327Y-96959699D01*
X127060000Y-96726310D01*
X127060000Y-96385750D01*
X126901250Y-96227000D01*
X125052000Y-96227000D01*
X124798000Y-96227000D01*
X122948750Y-96227000D01*
X122790000Y-96385750D01*
X116061317Y-96385750D01*
X116973377Y-95473690D01*
X122790000Y-95473690D01*
X122790000Y-95814250D01*
X122948750Y-95973000D01*
X124798000Y-95973000D01*
X124798000Y-95123750D01*
X125052000Y-95123750D01*
X125052000Y-95973000D01*
X126901250Y-95973000D01*
X127060000Y-95814250D01*
X127060000Y-95473690D01*
X126963327Y-95240301D01*
X126784698Y-95061673D01*
X126551309Y-94965000D01*
X125210750Y-94965000D01*
X125052000Y-95123750D01*
X124798000Y-95123750D01*
X124639250Y-94965000D01*
X123298691Y-94965000D01*
X123065302Y-95061673D01*
X122886673Y-95240301D01*
X122790000Y-95473690D01*
X116973377Y-95473690D01*
X120686031Y-91761036D01*
X120686034Y-91761034D01*
X120827369Y-91549510D01*
X120877000Y-91300000D01*
X120877000Y-89800000D01*
X122887676Y-89800000D01*
X122887676Y-90800000D01*
X122924423Y-90995294D01*
X123039842Y-91174660D01*
X123215951Y-91294990D01*
X123425000Y-91337324D01*
X126425000Y-91337324D01*
X126620294Y-91300577D01*
X126799660Y-91185158D01*
X126919990Y-91009049D01*
X126962324Y-90800000D01*
X126962324Y-89800000D01*
X126925577Y-89604706D01*
X126810158Y-89425340D01*
X126634049Y-89305010D01*
X126425000Y-89262676D01*
X123425000Y-89262676D01*
X123229706Y-89299423D01*
X123050340Y-89414842D01*
X122930010Y-89590951D01*
X122887676Y-89800000D01*
X120877000Y-89800000D01*
X120877000Y-89037324D01*
X120975000Y-89037324D01*
X121170294Y-89000577D01*
X121349660Y-88885158D01*
X121469990Y-88709049D01*
X121512324Y-88500000D01*
X121512324Y-87652000D01*
X128337676Y-87652000D01*
X128337676Y-88500000D01*
X128374423Y-88695294D01*
X128489842Y-88874660D01*
X128665951Y-88994990D01*
X128875000Y-89037324D01*
X130375000Y-89037324D01*
X130570294Y-89000577D01*
X130749660Y-88885158D01*
X130869990Y-88709049D01*
X130912324Y-88500000D01*
X130912324Y-85500000D01*
X130875577Y-85304706D01*
X130760158Y-85125340D01*
X130584049Y-85005010D01*
X130375000Y-84962676D01*
X128875000Y-84962676D01*
X128679706Y-84999423D01*
X128500340Y-85114842D01*
X128380010Y-85290951D01*
X128337676Y-85500000D01*
X128337676Y-86348000D01*
X121512324Y-86348000D01*
X121512324Y-85500000D01*
X121475577Y-85304706D01*
X121360158Y-85125340D01*
X121184049Y-85005010D01*
X120975000Y-84962676D01*
X119475000Y-84962676D01*
X119279706Y-84999423D01*
X119100340Y-85114842D01*
X118980010Y-85290951D01*
X118937676Y-85500000D01*
X118937676Y-88500000D01*
X118974423Y-88695294D01*
X119089842Y-88874660D01*
X119265951Y-88994990D01*
X119475000Y-89037324D01*
X119573000Y-89037324D01*
X119573000Y-91029933D01*
X104703966Y-105898966D01*
X104652000Y-105976739D01*
X104652000Y-105570068D01*
X106686031Y-103536036D01*
X106686034Y-103536034D01*
X106827369Y-103324510D01*
X106877000Y-103075000D01*
X106877000Y-89800000D01*
X108887676Y-89800000D01*
X108887676Y-90800000D01*
X108924423Y-90995294D01*
X109039842Y-91174660D01*
X109215951Y-91294990D01*
X109425000Y-91337324D01*
X112425000Y-91337324D01*
X112620294Y-91300577D01*
X112799660Y-91185158D01*
X112919990Y-91009049D01*
X112962324Y-90800000D01*
X112962324Y-89800000D01*
X112925577Y-89604706D01*
X112810158Y-89425340D01*
X112634049Y-89305010D01*
X112425000Y-89262676D01*
X109425000Y-89262676D01*
X109229706Y-89299423D01*
X109050340Y-89414842D01*
X108930010Y-89590951D01*
X108887676Y-89800000D01*
X106877000Y-89800000D01*
X106877000Y-89037324D01*
X106975000Y-89037324D01*
X107170294Y-89000577D01*
X107349660Y-88885158D01*
X107469990Y-88709049D01*
X107512324Y-88500000D01*
X107512324Y-87652000D01*
X114337676Y-87652000D01*
X114337676Y-88500000D01*
X114374423Y-88695294D01*
X114489842Y-88874660D01*
X114665951Y-88994990D01*
X114875000Y-89037324D01*
X116375000Y-89037324D01*
X116570294Y-89000577D01*
X116749660Y-88885158D01*
X116869990Y-88709049D01*
X116912324Y-88500000D01*
X116912324Y-85500000D01*
X116875577Y-85304706D01*
X116760158Y-85125340D01*
X116584049Y-85005010D01*
X116375000Y-84962676D01*
X114875000Y-84962676D01*
X114679706Y-84999423D01*
X114500340Y-85114842D01*
X114380010Y-85290951D01*
X114337676Y-85500000D01*
X114337676Y-86348000D01*
X107512324Y-86348000D01*
X107512324Y-85500000D01*
X107475577Y-85304706D01*
X107360158Y-85125340D01*
X107184049Y-85005010D01*
X106975000Y-84962676D01*
X105475000Y-84962676D01*
X105279706Y-84999423D01*
X105100340Y-85114842D01*
X104980010Y-85290951D01*
X104937676Y-85500000D01*
X104937676Y-86348000D01*
X87912324Y-86348000D01*
X87912324Y-85500000D01*
X87875577Y-85304706D01*
X87760158Y-85125340D01*
X87584049Y-85005010D01*
X87375000Y-84962676D01*
X85875000Y-84962676D01*
X85679706Y-84999423D01*
X85500340Y-85114842D01*
X85380010Y-85290951D01*
X85337676Y-85500000D01*
X85337676Y-86348000D01*
X78512324Y-86348000D01*
X78512324Y-85500000D01*
X78475577Y-85304706D01*
X78360158Y-85125340D01*
X78184049Y-85005010D01*
X77975000Y-84962676D01*
X76475000Y-84962676D01*
X76279706Y-84999423D01*
X76102000Y-85113774D01*
X76102000Y-82385750D01*
X79790000Y-82385750D01*
X79790000Y-82726310D01*
X79886673Y-82959699D01*
X80065302Y-83138327D01*
X80298691Y-83235000D01*
X81639250Y-83235000D01*
X81798000Y-83076250D01*
X81798000Y-82227000D01*
X82052000Y-82227000D01*
X82052000Y-83076250D01*
X82210750Y-83235000D01*
X83551309Y-83235000D01*
X83784698Y-83138327D01*
X83963327Y-82959699D01*
X84060000Y-82726310D01*
X84060000Y-82385750D01*
X108790000Y-82385750D01*
X108790000Y-82726310D01*
X108886673Y-82959699D01*
X109065302Y-83138327D01*
X109298691Y-83235000D01*
X110639250Y-83235000D01*
X110798000Y-83076250D01*
X110798000Y-82227000D01*
X111052000Y-82227000D01*
X111052000Y-83076250D01*
X111210750Y-83235000D01*
X112551309Y-83235000D01*
X112784698Y-83138327D01*
X112963327Y-82959699D01*
X113060000Y-82726310D01*
X113060000Y-82385750D01*
X122790000Y-82385750D01*
X122790000Y-82726310D01*
X122886673Y-82959699D01*
X123065302Y-83138327D01*
X123298691Y-83235000D01*
X124639250Y-83235000D01*
X124798000Y-83076250D01*
X124798000Y-82227000D01*
X125052000Y-82227000D01*
X125052000Y-83076250D01*
X125210750Y-83235000D01*
X126551309Y-83235000D01*
X126784698Y-83138327D01*
X126963327Y-82959699D01*
X127060000Y-82726310D01*
X127060000Y-82385750D01*
X126901250Y-82227000D01*
X125052000Y-82227000D01*
X124798000Y-82227000D01*
X122948750Y-82227000D01*
X122790000Y-82385750D01*
X113060000Y-82385750D01*
X112901250Y-82227000D01*
X111052000Y-82227000D01*
X110798000Y-82227000D01*
X108948750Y-82227000D01*
X108790000Y-82385750D01*
X84060000Y-82385750D01*
X83901250Y-82227000D01*
X82052000Y-82227000D01*
X81798000Y-82227000D01*
X79948750Y-82227000D01*
X79790000Y-82385750D01*
X76102000Y-82385750D01*
X76102000Y-81473690D01*
X79790000Y-81473690D01*
X79790000Y-81814250D01*
X79948750Y-81973000D01*
X81798000Y-81973000D01*
X81798000Y-81123750D01*
X82052000Y-81123750D01*
X82052000Y-81973000D01*
X83901250Y-81973000D01*
X84060000Y-81814250D01*
X84060000Y-81473690D01*
X108790000Y-81473690D01*
X108790000Y-81814250D01*
X108948750Y-81973000D01*
X110798000Y-81973000D01*
X110798000Y-81123750D01*
X111052000Y-81123750D01*
X111052000Y-81973000D01*
X112901250Y-81973000D01*
X113060000Y-81814250D01*
X113060000Y-81473690D01*
X122790000Y-81473690D01*
X122790000Y-81814250D01*
X122948750Y-81973000D01*
X124798000Y-81973000D01*
X124798000Y-81123750D01*
X125052000Y-81123750D01*
X125052000Y-81973000D01*
X126901250Y-81973000D01*
X127060000Y-81814250D01*
X127060000Y-81473690D01*
X126963327Y-81240301D01*
X126784698Y-81061673D01*
X126551309Y-80965000D01*
X125210750Y-80965000D01*
X125052000Y-81123750D01*
X124798000Y-81123750D01*
X124639250Y-80965000D01*
X123298691Y-80965000D01*
X123065302Y-81061673D01*
X122886673Y-81240301D01*
X122790000Y-81473690D01*
X113060000Y-81473690D01*
X112963327Y-81240301D01*
X112784698Y-81061673D01*
X112551309Y-80965000D01*
X111210750Y-80965000D01*
X111052000Y-81123750D01*
X110798000Y-81123750D01*
X110639250Y-80965000D01*
X109298691Y-80965000D01*
X109065302Y-81061673D01*
X108886673Y-81240301D01*
X108790000Y-81473690D01*
X84060000Y-81473690D01*
X83963327Y-81240301D01*
X83784698Y-81061673D01*
X83551309Y-80965000D01*
X82210750Y-80965000D01*
X82052000Y-81123750D01*
X81798000Y-81123750D01*
X81639250Y-80965000D01*
X80298691Y-80965000D01*
X80065302Y-81061673D01*
X79886673Y-81240301D01*
X79790000Y-81473690D01*
X76102000Y-81473690D01*
X76102000Y-62220068D01*
X76508056Y-61814012D01*
X76507735Y-62182407D01*
M02*
